<svg width="249" height="49" viewBox="0 0 249 49" fill="none" xmlns="http://www.w3.org/2000/svg">
<g clip-path="url(#clip0_691_8780)">
<path d="M86.7409 36L93.3909 12.655H87.8259L83.7309 29.525L79.3209 12.655H75.4359L70.9909 29.525L66.8959 12.655H61.3309L68.0159 36H73.3009L77.3609 19.97L81.4559 36H86.7409ZM106.391 36.42C111.501 36.42 114.476 33.585 116.121 30.68L111.851 28.615C110.871 30.505 108.771 32.01 106.391 32.01C102.121 32.01 99.0412 28.755 99.0412 24.345C99.0412 19.935 102.121 16.68 106.391 16.68C108.771 16.68 110.871 18.185 111.851 20.075L116.121 17.975C114.476 15.035 111.501 12.27 106.391 12.27C99.3562 12.27 93.9312 17.135 93.9312 24.345C93.9312 31.52 99.3562 36.42 106.391 36.42ZM130.07 36L139.485 12.655H136.16L128.285 32.815L120.41 12.655H117.085L126.465 36H130.07ZM147.977 36.42C150.742 36.42 153.017 35.51 154.697 33.83L153.437 32.115C152.107 33.48 150.147 34.25 148.222 34.25C144.582 34.25 142.342 31.59 142.132 28.405H155.817V27.74C155.817 22.665 152.807 18.675 147.697 18.675C142.867 18.675 139.367 22.63 139.367 27.53C139.367 32.815 142.972 36.42 147.977 36.42ZM153.227 26.48H142.132C142.272 23.89 144.057 20.845 147.662 20.845C151.512 20.845 153.192 23.96 153.227 26.48ZM174.103 36V24.135C174.103 20.46 172.248 18.675 168.713 18.675C166.193 18.675 163.883 20.145 162.693 21.545V19.095H160.068V36H162.693V23.645C163.673 22.28 165.633 21.02 167.698 21.02C169.973 21.02 171.478 21.965 171.478 24.94V36H174.103ZM194.221 36V12.655H191.596V21.65C190.231 19.795 188.166 18.675 185.891 18.675C181.446 18.675 178.366 22.175 178.366 27.565C178.366 33.06 181.481 36.42 185.891 36.42C188.271 36.42 190.336 35.195 191.596 33.48V36H194.221ZM186.521 34.075C183.126 34.075 181.096 31.31 181.096 27.565C181.096 23.82 183.126 21.02 186.521 21.02C188.621 21.02 190.651 22.28 191.596 23.75V31.415C190.651 32.885 188.621 34.075 186.521 34.075ZM206.863 36.42C212.008 36.42 215.228 32.43 215.228 27.53C215.228 22.63 212.008 18.675 206.863 18.675C201.718 18.675 198.498 22.63 198.498 27.53C198.498 32.43 201.718 36.42 206.863 36.42ZM206.863 34.075C203.258 34.075 201.228 30.995 201.228 27.53C201.228 24.1 203.258 21.02 206.863 21.02C210.468 21.02 212.463 24.1 212.463 27.53C212.463 30.995 210.468 34.075 206.863 34.075ZM222.132 36V24.03C222.902 22.665 225.107 21.335 226.717 21.335C227.137 21.335 227.452 21.37 227.767 21.44V18.745C225.457 18.745 223.497 20.04 222.132 21.825V19.095H219.507V36H222.132ZM236.415 36.42C240.79 36.42 243.065 34.145 243.065 31.31C243.065 24.73 232.6 27.18 232.6 23.47C232.6 21.965 234.035 20.81 236.345 20.81C238.515 20.81 240.37 21.72 241.385 22.945L242.61 21.125C241.245 19.76 239.215 18.675 236.345 18.675C232.32 18.675 230.045 20.915 230.045 23.54C230.045 29.805 240.51 27.285 240.51 31.38C240.51 33.06 239.11 34.285 236.52 34.285C234.21 34.285 232.075 33.165 230.955 31.87L229.59 33.76C231.305 35.58 233.65 36.42 236.415 36.42Z" fill="black"/>
<path d="M2.05371 3.04815C2.16808 3.03612 2.39831 3.01204 2.51418 3C3.54347 3.94502 4.49602 4.97581 5.45458 5.99306C6.02039 6.57994 6.67046 7.10361 7.0888 7.81539C6.72614 7.64534 6.34994 7.4753 6.07005 7.18036C4.9926 6.09991 3.93171 5.0029 2.83621 3.94201C2.59093 3.70576 2.36069 3.45445 2.15453 3.18208L2.05371 3.04815Z" fill="#06426B"/>
<path d="M0.951974 4.25306C1.35526 3.89793 1.65923 3.42391 2.15432 3.18164C2.36047 3.45401 2.59071 3.70531 2.836 3.94157C3.9315 5.00246 4.99239 6.09946 6.06983 7.17992C6.34972 7.47486 6.72593 7.6449 7.08858 7.81495C7.50843 8.15353 7.96137 8.46653 8.5317 8.4244C12.384 9.07748 16.2709 9.55601 20.1037 10.3295C19.5198 11.9186 19.3046 13.6671 19.6176 15.3405C19.4777 15.327 19.1993 15.2984 19.0593 15.2848C18.2377 14.5956 17.535 13.774 16.7179 13.0818C16.3281 13.1209 16.0964 13.5468 15.7969 13.7725C15.7984 13.8658 15.8014 14.0554 15.8029 14.1502C16.4711 14.8364 17.1678 15.494 17.8284 16.1877C18.2768 16.6497 18.4394 17.2907 18.6666 17.8731C19.571 20.2928 20.5145 22.6975 21.3903 25.1278C21.607 25.6891 21.7845 26.2639 21.9365 26.8463C21.7936 27.1788 21.6431 27.5084 21.4896 27.8364C20.8561 27.8319 20.1729 27.9403 19.7034 28.4037C18.8758 29.1276 18.8682 30.6008 19.7215 31.3065C20.4272 31.9852 21.7123 31.9551 22.3774 31.2298C22.6227 30.986 22.7702 30.667 22.9327 30.366C24.8799 30.3705 26.8317 30.3164 28.7759 30.3886C29.2484 30.9664 29.8262 31.5849 30.6313 31.603C31.6561 31.5533 32.6478 30.6399 32.5575 29.5685C32.6312 28.482 31.5673 27.4978 30.4884 27.6559C29.6366 27.6333 29.0242 28.3541 28.7172 29.0719C26.8482 29.0734 24.9793 29.0764 23.1103 29.0734C22.7898 29.1336 22.5791 28.7799 22.5595 28.5061C22.7807 27.8771 23.1825 27.3308 23.5392 26.7725C26.8106 26.753 30.0836 26.765 33.355 26.771C33.9539 26.7816 34.5604 26.774 35.1412 26.616C36.0637 23.7644 37.0177 20.9218 37.9989 18.0913C38.1508 17.53 38.354 16.9853 38.5391 16.436C38.8867 15.2984 39.0297 14.102 38.9981 12.9147C39.6767 12.9433 40.3494 13.0411 41.019 13.1405C42.4651 13.4068 43.9293 13.5453 45.3769 13.7905C46.638 13.9591 47.896 14.1547 49.154 14.3428C49.4309 14.4165 49.7153 14.4496 49.9997 14.4782C48.5551 18.3411 46.9254 22.1317 45.4085 25.9675C45.3047 26.2157 45.2054 26.4671 45.1076 26.7184C44.3251 28.6912 43.505 30.6474 42.721 32.6187C42.408 33.3275 42.1687 34.0693 41.8015 34.754C33.8215 34.7856 25.8415 34.736 17.863 34.7495C17.6719 34.742 17.6117 34.9843 17.5004 35.1001C16.7164 36.4063 15.9895 37.7456 15.2085 39.0548C15.4929 39.4656 15.7458 39.896 15.988 40.3339C20.9072 40.2752 25.8295 40.4151 30.7487 40.3248C30.988 40.0495 31.1098 39.6973 31.304 39.3919C31.8848 38.4679 32.7907 37.7712 33.8185 37.4085C34.1089 37.3363 34.4009 37.2731 34.6913 37.1963C35.4001 37.1196 36.1088 37.2144 36.7935 37.4055C38.3269 37.9397 39.5744 39.267 39.913 40.8696C40.1477 41.7002 40.0304 42.5745 39.8046 43.3931C39.0959 45.539 36.7845 46.952 34.5498 46.6194C32.8539 46.3365 31.3928 45.1192 30.8044 43.503C25.8821 43.5135 20.9614 43.4624 16.0407 43.4925C15.5802 44.9145 14.4245 46.0627 13.019 46.5562C12.0484 46.8662 11.0101 46.8527 10.0395 46.5547C8.64757 46.0672 7.51294 44.9386 7.0314 43.5436C6.96068 43.2517 6.89747 42.9583 6.82073 42.6678C6.5303 40.4768 7.94633 38.2512 10.038 37.556C10.8657 37.2972 11.7415 37.2595 12.5932 37.4251C13.1153 36.7148 13.5096 35.9218 13.9701 35.1724C14.1657 34.8985 14.1567 34.5584 14.1732 34.2379C14.2771 34.3432 14.3809 34.4486 14.4862 34.5554C14.0348 32.9227 13.3441 31.3742 12.8023 29.7746C11.3683 25.975 10.0561 22.1302 8.60242 18.3381C7.55508 15.8582 6.85985 13.2458 5.7794 10.7794C5.43029 10.0646 4.80428 9.54849 4.26105 8.98719C3.14598 7.84805 2.00083 6.73901 0.884257 5.60137C0.66606 5.37866 0.429805 5.17401 0.167969 5.00246C0.411748 4.7346 0.681108 4.49233 0.951974 4.25306Z" fill="#005580"/>
<path d="M21.2792 8.04894C22.6937 5.79775 25.1902 4.38172 27.7769 3.95586C29.3841 3.77529 31.0469 3.85504 32.5712 4.4359C35.2769 5.43358 37.5326 7.65619 38.4791 10.3919C38.7289 11.2136 38.9321 12.0578 38.9983 12.9155C39.0299 14.1028 38.8869 15.2991 38.5393 16.4367C38.3542 16.986 38.1511 17.5307 37.9991 18.092C37.4228 17.9852 36.8449 17.8904 36.2656 17.8046C36.3739 17.7836 36.5906 17.7429 36.6989 17.7219C36.9186 17.2629 37.1188 16.7934 37.2738 16.3088C36.5184 16.4653 35.7991 16.7467 35.0798 17.0191C35.0933 17.1455 35.1189 17.3983 35.1324 17.5247C34.9428 17.5322 34.7532 17.5413 34.5651 17.5503L34.6674 17.2704C34.5215 17.2539 34.374 17.2403 34.2295 17.2253C34.2175 17.29 34.1934 17.4209 34.1814 17.4871C34.1363 17.5022 34.0445 17.5322 33.9978 17.5473C33.584 17.4299 33.1536 17.3878 32.7247 17.3863C32.7037 17.3592 32.66 17.3035 32.6375 17.2764C33.3387 17.1922 33.9963 16.9303 34.6389 16.6519C34.5862 15.1727 34.362 13.6905 33.8413 12.3C32.4042 12.7439 30.9596 13.1788 29.5752 13.7687C29.9243 14.8146 30.147 15.9296 30.6978 16.8912C31.2034 17.0552 31.7361 17.1109 32.2477 17.2539C30.1545 16.998 28.0628 16.7076 25.9742 16.4127C25.4986 16.3525 25.0367 16.2306 24.5717 16.1328C24.5296 15.9973 24.4468 15.7295 24.4062 15.5956C24.1759 15.6422 23.9457 15.6904 23.717 15.7385C23.7471 15.8198 23.8103 15.9838 23.8403 16.0651C23.2399 15.9748 22.6455 15.8393 22.0406 15.7761C22.781 15.6858 23.4837 15.4195 24.1654 15.1276C23.7862 13.692 23.4852 12.2398 23.3513 10.7591C22.5974 11.0375 21.7803 11.1789 21.082 11.5898C20.5659 12.8538 20.7555 14.2999 20.9993 15.6136C20.4274 15.5113 19.8466 15.4692 19.2657 15.4646C19.2146 15.4195 19.1122 15.3307 19.0596 15.2856C19.1995 15.2991 19.4779 15.3277 19.6179 15.3412C19.3049 13.6679 19.52 11.9193 20.1039 10.3302C20.5824 9.61394 20.76 8.74266 21.2792 8.04894Z" fill="#5D9AB8"/>
<path d="M0.589606 5.89385C0.326264 5.61396 -0.102606 5.35965 0.0222927 4.9082L0.168259 5.00301C0.430096 5.17455 0.666351 5.37921 0.884548 5.60192C2.00112 6.73956 3.14628 7.8486 4.26134 8.98774C4.80457 9.54903 5.43058 10.0652 5.77969 10.78C6.86014 13.2463 7.55537 15.8587 8.60271 18.3386C10.0564 22.1307 11.3686 25.9755 12.8026 29.7752C13.3444 31.3748 14.0351 32.9232 14.4865 34.5559C14.3812 34.4491 14.2773 34.3438 14.1735 34.2384L14.0652 34.1286C13.4527 32.5169 12.8749 30.8917 12.2729 29.2771C12.0833 28.7188 11.8772 28.165 11.65 27.6218C11.0224 25.8566 10.3317 24.1156 9.70273 22.3504C9.57331 21.9848 9.43186 21.6221 9.30546 21.2549C9.18959 20.9179 9.06619 20.5853 8.93377 20.2542C8.85703 20.0451 8.77577 19.8374 8.69601 19.6282C8.62228 19.4356 8.55456 19.2415 8.48383 19.0474C8.39204 18.7901 8.28971 18.5373 8.18287 18.2875C8.1618 18.2107 8.11816 18.0572 8.09559 17.9805C7.96166 17.6855 7.85031 17.3816 7.74196 17.0776C7.34168 15.9746 6.93238 14.8746 6.53812 13.7685C6.32293 13.2268 6.12881 12.676 5.92716 12.1283C5.70746 11.576 5.59009 10.95 5.16122 10.5091C3.61427 8.99376 2.11849 7.42725 0.589606 5.89385Z" fill="#08456B"/>
<path d="M29.2881 5.13086C30.8531 5.15795 32.4121 5.63196 33.7363 6.46262C33.7453 6.50024 33.7649 6.57548 33.7739 6.6131C33.0907 6.8343 32.4301 7.17289 31.7138 7.25715C31.3527 6.92008 31.0562 6.51829 30.6755 6.20078C30.2497 5.79749 29.723 5.52361 29.2881 5.13086Z" fill="#E9F6FF"/>
<path d="M26.7822 5.45917C27.2668 5.43358 27.7438 5.2199 28.2268 5.28461C29.4337 5.67887 30.4013 6.56369 31.244 7.48313C30.0793 7.85783 28.9612 8.40257 27.7558 8.63431C27.5015 7.77206 27.169 6.93538 26.8725 6.08667C26.7928 5.88653 26.7898 5.66984 26.7822 5.45917Z" fill="#E9F6FF"/>
<path d="M24.9249 6.39281C25.2876 6.07529 25.7601 5.92331 26.1754 5.68555C26.5802 6.72988 26.9203 7.79679 27.3131 8.84564C26.1935 9.27752 25.0619 9.67931 23.9092 10.0134C23.9167 8.74934 24.1966 7.44316 24.9249 6.39281Z" fill="#E9F6FF"/>
<path d="M32.1318 7.71913C32.8948 7.44827 33.6713 7.21201 34.4237 6.91406C35.5809 7.91326 36.7125 9.11861 37.0977 10.6355C36.085 10.9259 35.1279 11.3984 34.0956 11.6091C33.6878 10.1976 32.8782 8.96211 32.1318 7.71913Z" fill="#E9F6FF"/>
<path d="M22.5254 8.49597C22.9467 7.96929 23.3545 7.39746 23.9609 7.06641C23.5968 8.08516 23.3816 9.15659 23.3635 10.24C23.046 10.3514 22.7119 10.4251 22.3734 10.4041C22.3011 10.4011 22.1552 10.395 22.0829 10.3935C21.8933 10.38 21.7037 10.3634 21.5156 10.3424C21.6887 9.65167 22.11 9.06329 22.5254 8.49597Z" fill="#E9F6FF"/>
<path d="M27.9609 9.20109C29.1783 8.77523 30.3746 8.28165 31.6176 7.93555C32.4603 9.15595 33.2368 10.4531 33.6446 11.8872C33.3466 11.9082 33.0487 11.9338 32.7507 11.9293C31.5394 11.842 30.343 11.6073 29.1437 11.4327C28.9556 11.365 28.7058 11.3439 28.6246 11.1288C28.3371 10.5118 28.2303 9.82709 27.9609 9.20109Z" fill="#E9F6FF"/>
<path d="M24.1474 10.4507C25.2955 10.1979 26.3489 9.62307 27.5091 9.41992C27.6776 10.0504 28.0463 10.6373 28.0373 11.3054L27.789 11.2437C26.5445 11.021 25.2895 10.7472 24.0225 10.7156C24.0541 10.6494 24.1173 10.5169 24.1474 10.4507Z" fill="#E9F6FF"/>
<path d="M23.8857 10.7179L24.0227 10.7148C25.2897 10.7464 26.5447 11.0203 27.7892 11.243C27.9502 11.3092 28.1022 11.3935 28.2587 11.4733C28.4859 12.1128 28.6966 12.7599 28.9464 13.3919C28.3475 13.7531 27.6643 13.9321 27.0142 14.1744C26.2287 14.4332 25.4613 14.7462 24.6622 14.9554C24.1325 13.6101 23.9173 12.158 23.8857 10.7179Z" fill="#005580"/>
<path d="M21.0816 11.5894C21.7799 11.1786 22.597 11.0372 23.3509 10.7588C23.4848 12.2395 23.7858 13.6917 24.165 15.1273C23.4833 15.4192 22.7806 15.6855 22.0402 15.7758C21.6911 15.7337 21.345 15.669 20.9989 15.6133C20.7551 14.2996 20.5655 12.8535 21.0816 11.5894Z" fill="#005580"/>
<path d="M34.8257 11.9445C35.6488 11.6601 36.4704 11.3712 37.2951 11.0928C37.3989 11.3486 37.5118 11.6014 37.6021 11.8617C37.6141 12.1371 37.6051 12.4125 37.6036 12.6879C36.6029 12.4877 35.5886 12.3433 34.5684 12.2876C34.5277 12.3403 34.4435 12.4441 34.4028 12.4968L34.3171 12.5118C34.2373 12.2184 34.594 12.0273 34.8257 11.9445Z" fill="#E9F6FF"/>
<path d="M29.143 11.4326C30.3423 11.6072 31.5386 11.8419 32.75 11.9292C32.6447 12.2603 32.273 12.2979 31.9976 12.4138C31.1218 12.6952 30.2731 13.0578 29.3807 13.2835C29.1746 12.7252 28.985 12.1594 28.7969 11.5951C28.9097 11.538 29.0256 11.4838 29.143 11.4326Z" fill="#00547F"/>
<path d="M37.6016 11.8613C37.8453 13.1148 37.746 14.4105 37.4782 15.6519C36.6987 15.9634 35.9087 16.2539 35.0931 16.454C35.0359 15.1478 34.8071 13.8447 34.446 12.5882L34.4023 12.4964C34.443 12.4437 34.5272 12.3399 34.5679 12.2872C35.5881 12.3429 36.6024 12.4873 37.6031 12.6875C37.6046 12.4121 37.6136 12.1367 37.6016 11.8613Z" fill="#005580"/>
<path d="M29.5752 13.7685C30.9596 13.1786 32.4042 12.7437 33.8413 12.2998C34.362 13.6902 34.5862 15.1725 34.6389 16.6517C33.9963 16.9301 33.3387 17.1919 32.6375 17.2762C32.5412 17.2702 32.3455 17.2597 32.2477 17.2536C31.7361 17.1107 31.2034 17.055 30.6978 16.891C30.147 15.9294 29.9243 14.8143 29.5752 13.7685Z" fill="#005580"/>
<path d="M15.7969 13.7727C16.0963 13.547 16.3281 13.1212 16.7178 13.082C17.5349 13.7742 18.2377 14.5959 19.0593 15.2851C19.112 15.3302 19.2143 15.419 19.2655 15.4641C19.8463 15.4687 20.4272 15.5108 20.999 15.6131C21.3451 15.6688 21.6912 15.7335 22.0403 15.7756C22.6453 15.8388 23.2397 15.9743 23.8401 16.0646C24.0839 16.0871 24.3276 16.1097 24.5714 16.1323C25.0364 16.2301 25.4984 16.352 25.9739 16.4122C28.0626 16.7071 30.1543 16.9975 32.2474 17.2534C32.3453 17.2594 32.5409 17.2699 32.6372 17.2759C32.6598 17.303 32.7034 17.3587 32.7245 17.3858C33.1533 17.3873 33.5837 17.4294 33.9975 17.5468C34.3783 17.6386 34.774 17.619 35.1623 17.6461C35.5264 17.7214 35.8951 17.768 36.2653 17.8041C36.8446 17.8899 37.4225 17.9847 37.9988 18.0915C37.0177 20.9221 36.0636 23.7647 35.1412 26.6163C34.5603 26.7743 33.9539 26.7818 33.355 26.7713C30.0835 26.7653 26.8106 26.7532 23.5391 26.7728C23.1825 27.3311 22.7807 27.8773 22.5595 28.5063C22.579 28.7802 22.7897 29.1338 23.1102 29.0736C24.9792 29.0766 26.8482 29.0736 28.7172 29.0721C29.0241 28.3543 29.6366 27.6335 30.4883 27.6561C31.5673 27.4981 32.6312 28.4822 32.5574 29.5687C32.6477 30.6401 31.6561 31.5536 30.6313 31.6032C29.8262 31.5852 29.2484 30.9667 28.7759 30.3888C26.8316 30.3166 24.8799 30.3708 22.9327 30.3663C22.7702 30.6672 22.6227 30.9862 22.3774 31.23C21.7123 31.9553 20.4272 31.9854 19.7214 31.3068C18.8682 30.601 18.8757 29.1278 19.7034 28.404C20.1729 27.9405 20.856 27.8322 21.4896 27.8367C21.6431 27.5086 21.7935 27.1791 21.9365 26.8465C21.7845 26.2642 21.6069 25.6893 21.3902 25.128C20.5145 22.6978 19.5709 20.2931 18.6665 17.8733C18.4393 17.291 18.2768 16.6499 17.8284 16.188C17.1678 15.4942 16.471 14.8366 15.8029 14.1504C15.8014 14.0556 15.7984 13.866 15.7969 13.7727Z" fill="white"/>
<path d="M24.834 15.4165C26.232 14.8989 27.6374 14.3978 29.052 13.9268C29.5621 14.8251 29.7818 15.8454 30.0707 16.8295C28.6953 16.655 27.3259 16.4428 25.9521 16.2667C25.6421 16.2111 25.3125 16.196 25.0326 16.041C24.9468 15.8394 24.8927 15.6257 24.834 15.4165Z" fill="#005580"/>
<path d="M23.7168 15.7387C23.9455 15.6905 24.1758 15.6424 24.406 15.5957C24.4466 15.7296 24.5294 15.9975 24.5715 16.1329C24.3277 16.1103 24.084 16.0878 23.8402 16.0652C23.8101 15.9839 23.7469 15.8199 23.7168 15.7387Z" fill="#1D6184"/>
<path d="M35.08 17.0189C35.7993 16.7465 36.5186 16.4651 37.274 16.3086C37.119 16.7931 36.9189 17.2626 36.6992 17.7216C36.5908 17.7427 36.3741 17.7833 36.2658 17.8044C35.8956 17.7683 35.5269 17.7216 35.1628 17.6464C34.7745 17.6193 34.3788 17.6388 33.998 17.5471C34.0447 17.532 34.1365 17.5019 34.1816 17.4869C34.1937 17.4206 34.2178 17.2897 34.2298 17.225C34.3743 17.2401 34.5217 17.2536 34.6677 17.2702L34.5654 17.5501C34.7535 17.541 34.9431 17.532 35.1327 17.5245C35.1191 17.3981 35.0935 17.1453 35.08 17.0189Z" fill="#00517C"/>
</g>
<defs>
<clipPath id="clip0_691_8780">
<rect width="249" height="49" fill="white"/>
</clipPath>
</defs>
</svg>
