<!-- Source https://icomoon.io -->
<svg aria-hidden="true" style="position: absolute; width: 0; height: 0; overflow: hidden;" version="1.1" xmlns="http://www.w3.org/2000/svg" xmlns:xlink="http://www.w3.org/1999/xlink">
<defs>
<symbol id="wcv-icon-times" viewBox="0 0 24 24">
<title>times</title>
	<path fill="none" stroke="currentColor" stroke-linecap="round" stroke-linejoin="round" stroke-width="2" d="M18 6L6 18M6 6l12 12" />
</symbol>
<symbol id="wcv-icon-star" viewBox="0 0 36 32">
<title>star</title>
<path d="M16.206 1.113l-4.081 8.275-9.131 1.331c-1.637 0.238-2.294 2.256-1.106 3.412l6.606 6.438-1.563 9.094c-0.281 1.644 1.45 2.875 2.9 2.106l8.169-4.294 8.169 4.294c1.45 0.762 3.181-0.462 2.9-2.106l-1.563-9.094 6.606-6.438c1.188-1.156 0.531-3.175-1.106-3.412l-9.131-1.331-4.081-8.275c-0.731-1.475-2.85-1.494-3.587 0z"></path>
</symbol>
<symbol id="wcv-icon-star-o" viewBox="0 0 36 32">
<title>star-o</title>
<path d="M33.006 10.719l-9.131-1.331-4.081-8.275c-0.731-1.475-2.85-1.494-3.587 0l-4.081 8.275-9.131 1.331c-1.637 0.238-2.294 2.256-1.106 3.412l6.606 6.438-1.563 9.094c-0.281 1.644 1.45 2.875 2.9 2.106l8.169-4.294 8.169 4.294c1.45 0.762 3.181-0.462 2.9-2.106l-1.563-9.094 6.606-6.438c1.188-1.156 0.531-3.175-1.106-3.412zM24.288 19.519l1.481 8.65-7.769-4.081-7.769 4.081 1.481-8.65-6.287-6.125 8.688-1.262 3.888-7.875 3.887 7.875 8.688 1.262-6.287 6.125z"></path>
</symbol>
<symbol id="wcv-icon-twitter" viewBox="0 0 32 32">
<title>twitter</title>
<path d="M28.711 9.482c0.020 0.284 0.020 0.569 0.020 0.853 0 8.67-6.599 18.66-18.66 18.66-3.716 0-7.168-1.076-10.071-2.944 0.528 0.061 1.036 0.081 1.584 0.081 3.066 0 5.888-1.035 8.142-2.802-2.883-0.061-5.3-1.949-6.132-4.548 0.406 0.061 0.812 0.102 1.239 0.102 0.589 0 1.178-0.081 1.726-0.223-3.005-0.609-5.259-3.249-5.259-6.437v-0.081c0.873 0.487 1.888 0.792 2.964 0.832-1.766-1.178-2.924-3.188-2.924-5.462 0-1.218 0.325-2.335 0.893-3.31 3.228 3.98 8.081 6.579 13.523 6.863-0.101-0.487-0.162-0.995-0.162-1.502 0-3.614 2.924-6.558 6.558-6.558 1.888 0 3.594 0.792 4.792 2.071 1.482-0.284 2.904-0.832 4.162-1.584-0.487 1.523-1.523 2.802-2.883 3.614 1.32-0.142 2.599-0.508 3.777-1.015-0.893 1.299-2.010 2.457-3.289 3.391z"></path>
</symbol>
<symbol id="wcv-icon-twitter-square" viewBox="0 0 28 32">
<title>twitter-square</title>
<path d="M25 2h-22c-1.656 0-3 1.344-3 3v22c0 1.656 1.344 3 3 3h22c1.656 0 3-1.344 3-3v-22c0-1.656-1.344-3-3-3zM21.944 11.925c0.012 0.175 0.012 0.356 0.012 0.531 0 5.419-4.125 11.662-11.662 11.662-2.325 0-4.481-0.675-6.294-1.837 0.331 0.038 0.65 0.050 0.987 0.050 1.919 0 3.681-0.65 5.088-1.75-1.8-0.038-3.313-1.219-3.831-2.844 0.631 0.094 1.2 0.094 1.85-0.075-1.875-0.381-3.281-2.031-3.281-4.025v-0.050c0.544 0.306 1.181 0.494 1.85 0.519-1.107-0.744-1.825-1.991-1.825-3.406 0-0.002 0-0.005 0-0.007v0c0-0.762 0.2-1.463 0.556-2.069 2.019 2.487 5.050 4.112 8.45 4.287-0.581-2.781 1.5-5.037 4-5.037 1.181 0 2.244 0.494 2.994 1.294 0.925-0.175 1.813-0.519 2.6-0.988-0.306 0.95-0.95 1.75-1.8 2.256 0.825-0.088 1.625-0.319 2.363-0.637-0.556 0.819-1.256 1.544-2.056 2.125z"></path>
</symbol>
<symbol id="wcv-icon-instagram" viewBox="0 0 28 32">
<title>instagram</title>
<path d="M14.006 8.813c-3.975 0-7.181 3.206-7.181 7.181s3.206 7.181 7.181 7.181 7.181-3.206 7.181-7.181-3.206-7.181-7.181-7.181zM14.006 20.663c-2.569 0-4.669-2.094-4.669-4.669s2.094-4.669 4.669-4.669 4.669 2.094 4.669 4.669-2.1 4.669-4.669 4.669zM23.156 8.519c0 0.931-0.75 1.675-1.675 1.675-0.931 0-1.675-0.75-1.675-1.675s0.75-1.675 1.675-1.675 1.675 0.75 1.675 1.675zM27.913 10.219c-0.106-2.244-0.619-4.231-2.262-5.869-1.637-1.638-3.625-2.15-5.869-2.263-2.313-0.131-9.244-0.131-11.556 0-2.237 0.106-4.225 0.619-5.869 2.256s-2.15 3.625-2.263 5.869c-0.131 2.313-0.131 9.244 0 11.556 0.106 2.244 0.619 4.231 2.263 5.869s3.625 2.15 5.869 2.262c2.313 0.131 9.244 0.131 11.556 0 2.244-0.106 4.231-0.619 5.869-2.262 1.637-1.637 2.15-3.625 2.262-5.869 0.131-2.313 0.131-9.238 0-11.55zM24.925 24.25c-0.488 1.225-1.431 2.169-2.663 2.663-1.844 0.731-6.219 0.563-8.256 0.563s-6.419 0.163-8.256-0.563c-1.225-0.488-2.169-1.431-2.663-2.663-0.731-1.844-0.563-6.219-0.563-8.256s-0.163-6.419 0.563-8.256c0.487-1.225 1.431-2.169 2.663-2.662 1.844-0.731 6.219-0.563 8.256-0.563s6.419-0.162 8.256 0.563c1.225 0.487 2.169 1.431 2.663 2.662 0.731 1.844 0.563 6.219 0.563 8.256s0.169 6.419-0.563 8.256z"></path>
</symbol>
<symbol id="wcv-icon-facebook" viewBox="0 0 28 32">
<title>facebook</title>
<path d="M28 3.544v24.906c0 0.856-0.694 1.544-1.544 1.544h-7.137v-10.837h3.637l0.544-4.225h-4.188v-2.7c0-1.225 0.337-2.056 2.094-2.056h2.238v-3.781c-0.387-0.050-1.712-0.169-3.262-0.169-3.225 0-5.438 1.969-5.438 5.588v3.119h-3.65v4.225h3.65v10.844h-13.4c-0.85 0-1.544-0.694-1.544-1.544v-24.913c0-0.85 0.694-1.544 1.544-1.544h24.906c0.856 0 1.55 0.694 1.55 1.544z"></path>
</symbol>
<symbol id="wcv-icon-facebook-square" viewBox="0 0 28 32">
<title>facebook-square</title>
<path d="M28 5v22c0 1.656-1.344 3-3 3h-5.331v-11.075h3.788l0.544-4.225h-4.331v-2.7c0-1.225 0.337-2.056 2.094-2.056h2.238v-3.775c-0.387-0.050-1.712-0.169-3.262-0.169-3.225 0-5.438 1.969-5.438 5.587v3.119h-3.8v4.225h3.806v11.069h-12.306c-1.656 0-3-1.344-3-3v-22c0-1.656 1.344-3 3-3h22c1.656 0 3 1.344 3 3z"></path>
</symbol>
<symbol id="wcv-icon-linkedin-in" viewBox="0 0 28 32">
<title>linkedin-in</title>
<path d="M6.269 28h-5.806v-18.694h5.806v18.694zM3.362 6.756c-1.856 0-3.362-1.537-3.362-3.394s1.506-3.362 3.362-3.362 3.362 1.506 3.362 3.362-1.506 3.394-3.362 3.394zM28 28h-5.794v-9.1c0-2.169-0.044-4.95-3.019-4.95-3.019 0-3.481 2.356-3.481 4.794v9.256h-5.8v-18.694h5.569v2.55h0.081c0.775-1.469 2.669-3.019 5.494-3.019 5.875 0 6.956 3.869 6.956 8.894v10.269h-0.006z"></path>
</symbol>
<symbol id="wcv-icon-linkedin" viewBox="0 0 28 32">
<title>linkedin</title>
<path d="M26 2h-24.006c-1.1 0-1.994 0.906-1.994 2.019v23.962c0 1.113 0.894 2.019 1.994 2.019h24.006c1.1 0 2-0.906 2-2.019v-23.962c0-1.112-0.9-2.019-2-2.019zM8.463 26h-4.15v-13.363h4.156v13.363zM6.388 10.813c-1.331 0-2.406-1.081-2.406-2.406s1.075-2.406 2.406-2.406c1.325 0 2.406 1.081 2.406 2.406 0 1.331-1.075 2.406-2.406 2.406zM24.019 26h-4.15v-6.5c0-1.55-0.031-3.544-2.156-3.544-2.162 0-2.494 1.688-2.494 3.431v6.613h-4.15v-13.363h3.981v1.825h0.056c0.556-1.050 1.912-2.156 3.931-2.156 4.2 0 4.981 2.769 4.981 6.369v7.325z"></path>
</symbol>
<symbol id="wcv-icon-youtube" viewBox="0 0 36 32">
<title>youtube</title>
<path d="M34.353 7.755c-0.393-1.478-1.549-2.642-3.018-3.037-2.662-0.718-13.336-0.718-13.336-0.718s-10.674 0-13.336 0.718c-1.469 0.395-2.625 1.559-3.018 3.037-0.713 2.679-0.713 8.269-0.713 8.269s0 5.59 0.713 8.269c0.393 1.478 1.549 2.594 3.018 2.989 2.662 0.718 13.336 0.718 13.336 0.718s10.674 0 13.336-0.718c1.469-0.395 2.625-1.511 3.018-2.989 0.713-2.679 0.713-8.269 0.713-8.269s0-5.59-0.713-8.269zM14.509 21.099v-10.15l8.921 5.075-8.921 5.075z"></path>
</symbol>
<symbol id="wcv-icon-youtube-square" viewBox="0 0 28 32">
<title>youtube-square</title>
<path d="M11.675 12.631l5.95 3.381-5.95 3.381v-6.762zM28 5v22c0 1.656-1.344 3-3 3h-22c-1.656 0-3-1.344-3-3v-22c0-1.656 1.344-3 3-3h22c1.656 0 3 1.344 3 3zM25.375 16.019s0-3.725-0.475-5.512c-0.262-0.988-1.031-1.762-2.012-2.025-1.769-0.481-8.887-0.481-8.887-0.481s-7.119 0-8.887 0.481c-0.981 0.262-1.75 1.037-2.013 2.025-0.475 1.781-0.475 5.512-0.475 5.512s0 3.725 0.475 5.512c0.263 0.988 1.031 1.731 2.013 1.994 1.769 0.475 8.887 0.475 8.887 0.475s7.119 0 8.887-0.481c0.981-0.262 1.75-1.006 2.012-1.994 0.475-1.781 0.475-5.506 0.475-5.506z"></path>
</symbol>
<symbol id="wcv-icon-pinterest" viewBox="0 0 31 32">
<title>pinterest</title>
<path d="M31 16c0 8.563-6.938 15.5-15.5 15.5-1.6 0-3.137-0.244-4.588-0.694 0.631-1.031 1.575-2.719 1.925-4.063 0.188-0.725 0.963-3.688 0.963-3.688 0.506 0.962 1.981 1.781 3.55 1.781 4.675 0 8.044-4.3 8.044-9.644 0-5.119-4.181-8.95-9.556-8.95-6.688 0-10.244 4.488-10.244 9.381 0 2.275 1.213 5.106 3.144 6.006 0.294 0.137 0.45 0.075 0.519-0.206 0.050-0.212 0.313-1.269 0.431-1.756 0.037-0.156 0.019-0.294-0.106-0.444-0.631-0.781-1.144-2.206-1.144-3.537 0-3.419 2.588-6.725 7-6.725 3.806 0 6.475 2.594 6.475 6.306 0 4.194-2.119 7.1-4.875 7.1-1.519 0-2.662-1.256-2.294-2.8 0.438-1.844 1.281-3.831 1.281-5.162 0-1.188-0.637-2.181-1.963-2.181-1.556 0-2.806 1.606-2.806 3.762 0 1.375 0.463 2.3 0.463 2.3s-1.531 6.488-1.813 7.7c-0.313 1.337-0.188 3.225-0.056 4.45-5.763-2.256-9.85-7.869-9.85-14.438 0-8.563 6.938-15.5 15.5-15.5s15.5 6.938 15.5 15.5z"></path>
</symbol>
<symbol id="wcv-icon-pinterest-square" viewBox="0 0 28 32">
<title>pinterest-square</title>
<path d="M28 5v22c0 1.656-1.344 3-3 3h-15.35c0.613-1.025 1.4-2.5 1.713-3.706 0.188-0.719 0.956-3.65 0.956-3.65 0.5 0.956 1.963 1.762 3.519 1.762 4.631 0 7.963-4.256 7.963-9.544 0-5.069-4.137-8.863-9.463-8.863-6.625 0-10.137 4.444-10.137 9.287 0 2.25 1.2 5.050 3.112 5.944 0.294 0.137 0.444 0.075 0.513-0.206 0.050-0.212 0.313-1.256 0.425-1.738 0.037-0.156 0.019-0.288-0.106-0.438-0.631-0.769-1.144-2.181-1.144-3.5 0-3.387 2.563-6.662 6.931-6.662 3.769 0 6.413 2.569 6.413 6.244 0 4.15-2.094 7.025-4.825 7.025-1.506 0-2.631-1.244-2.275-2.775 0.431-1.825 1.269-3.794 1.269-5.113 0-3.313-4.719-2.856-4.719 1.563 0 1.356 0.456 2.281 0.456 2.281-1.963 8.3-2.256 8.406-1.85 12.037l0.137 0.050h-5.537c-1.656 0-3-1.344-3-3v-22c0-1.656 1.344-3 3-3h22c1.656 0 3 1.344 3 3z"></path>
</symbol>
<symbol id="wcv-icon-pinterest-p" viewBox="0 0 24 32">
<title>pinterest-p</title>
<path d="M12.75 0.406c-6.412 0-12.75 4.275-12.75 11.194 0 4.4 2.475 6.9 3.975 6.9 0.619 0 0.975-1.725 0.975-2.212 0-0.581-1.481-1.819-1.481-4.238 0-5.025 3.825-8.588 8.775-8.588 4.256 0 7.406 2.419 7.406 6.862 0 3.319-1.331 9.544-5.644 9.544-1.556 0-2.887-1.125-2.887-2.738 0-2.363 1.65-4.65 1.65-7.088 0-4.138-5.869-3.388-5.869 1.613 0 1.050 0.131 2.213 0.6 3.169-0.862 3.712-2.625 9.244-2.625 13.069 0 1.181 0.169 2.344 0.281 3.525 0.213 0.238 0.106 0.212 0.431 0.094 3.15-4.313 3.037-5.156 4.463-10.8 0.769 1.462 2.756 2.25 4.331 2.25 6.637 0 9.619-6.469 9.619-12.3 0-6.206-5.363-10.256-11.25-10.256z"></path>
</symbol>
<symbol id="wcv-icon-snapchat" viewBox="0 0 31 32">
<title>snapchat</title>
<path d="M15.5 0.5c-8.563 0-15.5 6.938-15.5 15.5s6.938 15.5 15.5 15.5 15.5-6.938 15.5-15.5-6.938-15.5-15.5-15.5zM26.094 21.681c-0.219 0.506-1.131 0.875-2.8 1.137-0.087 0.119-0.156 0.613-0.269 0.994-0.069 0.231-0.231 0.369-0.506 0.369h-0.012c-0.387 0-0.8-0.181-1.613-0.181-1.1 0-1.481 0.25-2.337 0.856-0.906 0.644-1.775 1.194-3.075 1.137-1.313 0.1-2.412-0.7-3.031-1.137-0.863-0.606-1.238-0.856-2.338-0.856-0.781 0-1.275 0.194-1.613 0.194s-0.469-0.206-0.519-0.375c-0.112-0.381-0.181-0.881-0.269-1-0.862-0.131-2.8-0.469-2.844-1.337-0.013-0.225 0.144-0.425 0.369-0.462 2.894-0.475 4.194-3.444 4.25-3.569 0-0.006 0.006-0.012 0.012-0.019 0.156-0.313 0.188-0.575 0.1-0.781-0.213-0.494-1.119-0.669-1.5-0.825-0.987-0.387-1.125-0.838-1.063-1.144 0.1-0.531 0.9-0.863 1.369-0.644 0.369 0.175 0.7 0.262 0.981 0.262 0.206 0 0.344-0.050 0.412-0.088-0.088-1.494-0.294-3.625 0.238-4.819 1.406-3.144 4.381-3.394 5.256-3.394 0.037 0 0.381-0.006 0.419-0.006 2.169 0 4.25 1.112 5.269 3.394 0.531 1.194 0.325 3.319 0.238 4.819 0.069 0.037 0.181 0.081 0.356 0.088 0.269-0.012 0.575-0.1 0.919-0.262 0.25-0.119 0.6-0.1 0.85 0 0.394 0.144 0.644 0.425 0.65 0.744 0.006 0.406-0.356 0.756-1.075 1.037-0.087 0.037-0.194 0.069-0.306 0.106-0.406 0.131-1.025 0.325-1.188 0.719-0.087 0.206-0.050 0.469 0.1 0.781 0.006 0.006 0.006 0.012 0.012 0.019 0.056 0.125 1.356 3.094 4.25 3.569 0.25 0.063 0.444 0.344 0.306 0.675z"></path>
</symbol>
<symbol id="wcv-icon-snapchat-square" viewBox="0 0 28 32">
<title>snapchat-square</title>
<path d="M25 2h-22c-1.656 0-3 1.344-3 3v22c0 1.656 1.344 3 3 3h22c1.656 0 3-1.344 3-3v-22c0-1.656-1.344-3-3-3zM24.594 21.681c-0.219 0.506-1.131 0.875-2.8 1.137-0.087 0.119-0.156 0.613-0.269 0.994-0.069 0.231-0.231 0.369-0.506 0.369h-0.012c-0.387 0-0.8-0.181-1.613-0.181-1.1 0-1.481 0.25-2.337 0.856-0.906 0.644-1.775 1.194-3.075 1.137-1.313 0.1-2.412-0.7-3.031-1.137-0.863-0.606-1.238-0.856-2.338-0.856-0.781 0-1.275 0.194-1.612 0.194s-0.469-0.206-0.519-0.375c-0.112-0.381-0.181-0.881-0.269-1-0.862-0.131-2.8-0.469-2.844-1.337-0.013-0.225 0.144-0.425 0.369-0.462 2.894-0.475 4.194-3.444 4.25-3.569 0-0.006 0.006-0.012 0.013-0.019 0.156-0.313 0.188-0.575 0.1-0.781-0.213-0.494-1.119-0.669-1.5-0.825-0.987-0.387-1.125-0.838-1.063-1.144 0.1-0.531 0.9-0.863 1.369-0.644 0.369 0.175 0.7 0.262 0.981 0.262 0.206 0 0.344-0.050 0.413-0.088-0.088-1.494-0.294-3.625 0.238-4.819 1.406-3.144 4.381-3.394 5.256-3.394 0.037 0 0.381-0.006 0.419-0.006 2.169 0 4.25 1.112 5.269 3.394 0.531 1.194 0.325 3.319 0.238 4.819 0.069 0.037 0.181 0.081 0.356 0.088 0.269-0.012 0.575-0.1 0.919-0.262 0.25-0.119 0.6-0.1 0.85 0 0.394 0.144 0.644 0.425 0.65 0.744 0.006 0.406-0.356 0.756-1.075 1.037-0.087 0.037-0.194 0.069-0.306 0.106-0.406 0.131-1.025 0.325-1.188 0.719-0.087 0.206-0.050 0.469 0.1 0.781 0.006 0.006 0.006 0.012 0.012 0.019 0.056 0.125 1.356 3.094 4.25 3.569 0.25 0.063 0.444 0.344 0.306 0.675z"></path>
</symbol>
<symbol id="wcv-icon-snapchat-ghost" viewBox="0 0 32 32">
<title>snapchat-ghost</title>
<path d="M31.928 24.542c-0.326 0.76-1.702 1.318-4.21 1.707-0.129 0.174-0.236 0.918-0.407 1.497-0.102 0.348-0.351 0.554-0.758 0.554l-0.019-0c-0.587 0-1.2-0.27-2.428-0.27-1.658 0-2.229 0.378-3.516 1.287-1.364 0.965-2.673 1.798-4.627 1.712-1.978 0.146-3.627-1.057-4.554-1.713-1.295-0.915-1.864-1.286-3.515-1.286-1.179 0-1.921 0.295-2.428 0.295-0.505 0-0.701-0.308-0.776-0.565-0.169-0.574-0.275-1.329-0.408-1.508-1.292-0.201-4.207-0.709-4.281-2.009-0.001-0.011-0.001-0.024-0.001-0.037 0-0.329 0.239-0.601 0.552-0.655l0.004-0.001c4.349-0.716 6.308-5.181 6.389-5.371 0.005-0.011 0.010-0.021 0.015-0.032 0.232-0.471 0.284-0.866 0.154-1.172-0.316-0.744-1.679-1.010-2.253-1.237-1.482-0.585-1.688-1.258-1.601-1.719 0.152-0.802 1.358-1.296 2.063-0.966 0.557 0.261 1.053 0.394 1.472 0.394 0.314 0 0.513-0.075 0.623-0.136-0.128-2.246-0.444-5.456 0.355-7.248 2.111-4.732 6.585-5.1 7.905-5.1 0.059 0 0.571-0.006 0.632-0.006 3.259 0 6.391 1.674 7.92 5.103 0.799 1.791 0.484 4.987 0.356 7.251 0.099 0.055 0.272 0.121 0.537 0.134 0.4-0.018 0.863-0.149 1.379-0.391 0.38-0.178 0.9-0.154 1.28 0.004l0.002 0.001c0.592 0.212 0.965 0.638 0.974 1.117 0.012 0.609-0.533 1.135-1.617 1.564-0.132 0.052-0.293 0.103-0.465 0.158-0.612 0.194-1.538 0.488-1.788 1.079-0.13 0.306-0.078 0.701 0.154 1.172 0.005 0.011 0.010 0.021 0.015 0.032 0.081 0.189 2.038 4.654 6.389 5.371 0.402 0.066 0.698 0.492 0.483 0.991z"></path>
</symbol>
<symbol id="wcv-icon-telegram-square" viewBox="0 0 32 32">
<title>telegram-square</title>
<path d="M0 0v32h32v-32h-32zM27.064 7.081l-3.76 18.084c-0.089 0.427-0.589 0.62-0.942 0.364l-5.132-3.726c-0.312-0.226-0.736-0.214-1.035 0.029l-2.846 2.32c-0.33 0.27-0.828 0.12-0.954-0.287l-1.976-6.354-5.105-1.905c-0.519-0.194-0.523-0.926-0.006-1.126l20.95-8.082c0.444-0.172 0.902 0.217 0.806 0.684z"></path>
<path d="M22.053 10.351l-9.977 6.144c-0.382 0.236-0.562 0.698-0.439 1.13l1.079 3.79c0.077 0.269 0.466 0.241 0.504-0.036l0.28-2.078c0.053-0.391 0.24-0.752 0.529-1.021l8.233-7.653c0.154-0.143-0.030-0.385-0.21-0.275z"></path>
</symbol>
<symbol id="wcv-icon-telegram-sqaure-o" viewBox="0 0 32 32">
<title>telegram-sqaure-o</title>
<path d="M24.125 3.313c0 0.345-0.28 0.625-0.625 0.625s-0.625-0.28-0.625-0.625 0.28-0.625 0.625-0.625 0.625 0.28 0.625 0.625z"></path>
<path d="M24.835 8.855l-18.438 7.187c-0.24 0.093-0.398 0.325-0.398 0.583s0.158 0.489 0.399 0.582l3.595 1.397c0.412 1.029 2.277 5.693 2.306 5.763 0.173 0.41 0.706 0.511 1.017 0.199l2.784-2.784 5.135 4.082c0.359 0.286 0.901 0.099 1-0.357l3.438-15.938c0.102-0.478-0.367-0.897-0.838-0.714zM18.252 12.763l-7.837 4.664-2.067-0.803zM20.099 13.119l-6.395 5.833c-0.083 0.076-0.151 0.184-0.182 0.3-0 0-0.001 0.001-0.001 0.002l-0.766 2.888-1.503-3.758zM14.484 20.497l0.632 0.502-1.042 1.042zM21.226 24.26c-1.193-0.948-5.032-3.999-6.138-4.878l8.951-8.165z"></path>
<path d="M28.875 0h-25.75c-1.723 0-3.125 1.402-3.125 3.125v25.75c0 1.723 1.402 3.125 3.125 3.125h25.75c1.723 0 3.125-1.402 3.125-3.125v-25.75c0-1.723-1.402-3.125-3.125-3.125zM30.75 28.875c0 1.034-0.841 1.875-1.875 1.875h-25.75c-1.034 0-1.875-0.841-1.875-1.875v-25.75c0-1.034 0.841-1.875 1.875-1.875h25.75c1.034 0 1.875 0.841 1.875 1.875z"></path>
<path d="M8.5 3.938h12.5c0.345 0 0.625-0.28 0.625-0.625s-0.28-0.625-0.625-0.625h-12.5c-0.345 0-0.625 0.28-0.625 0.625s0.28 0.625 0.625 0.625z"></path>
</symbol>
<symbol id="wcv-icon-telegram" viewBox="0 0 32 32">
<title>telegram</title>
<path d="M16 0c-8.838 0-16 7.162-16 16s7.162 16 16 16 16-7.163 16-16-7.163-16-16-16zM23.863 10.969l-2.625 12.369c-0.181 0.881-0.712 1.087-1.45 0.681l-4-2.956-1.919 1.869c-0.225 0.219-0.4 0.4-0.8 0.4-0.519 0-0.431-0.194-0.606-0.688l-1.363-4.475-3.956-1.231c-0.856-0.262-0.862-0.85 0.194-1.269l15.412-5.95c0.7-0.319 1.381 0.169 1.113 1.25z"></path>
</symbol>
<symbol id="wcv-icon-pen-square" viewBox="0 0 28 32">
<title>pen-square</title>
<path d="M25 30h-22c-1.656 0-3-1.344-3-3v-22c0-1.656 1.344-3 3-3h22c1.656 0 3 1.344 3 3v22c0 1.656-1.344 3-3 3zM14.881 11.119l-8.481 8.481-0.394 3.569c-0.050 0.475 0.35 0.881 0.831 0.831l3.569-0.394 8.481-8.481c0.144-0.144 0.144-0.381 0-0.531l-3.469-3.469c-0.156-0.15-0.394-0.15-0.537-0.006zM21.563 10.319l-1.881-1.881c-0.587-0.588-1.538-0.588-2.119 0l-1.444 1.444c-0.144 0.144-0.144 0.381 0 0.531l3.469 3.469c0.144 0.144 0.381 0.144 0.531 0l1.444-1.444c0.581-0.581 0.581-1.531 0-2.119z"></path>
</symbol>
<symbol id="wcv-icon-check-square" viewBox="0 0 28 32">
<title>check-square</title>
<path d="M25 30h-22c-1.657 0-3-1.343-3-3v-22c0-1.657 1.343-3 3-3h22c1.657 0 3 1.343 3 3v22c0 1.657-1.343 3-3 3zM12.207 23.871l11.5-11.5c0.39-0.39 0.39-1.024 0-1.414l-1.414-1.414c-0.39-0.39-1.024-0.391-1.414 0l-9.379 9.379-4.379-4.379c-0.391-0.39-1.024-0.39-1.414 0l-1.414 1.414c-0.39 0.391-0.39 1.024 0 1.414l6.5 6.5c0.391 0.391 1.024 0.391 1.414 0z"></path>
</symbol>
<symbol id="wcv-icon-sort" viewBox="0 0 16 28">
<title>sort</title>
<path d="M16 17c0 0.266-0.109 0.516-0.297 0.703l-7 7c-0.187 0.187-0.438 0.297-0.703 0.297s-0.516-0.109-0.703-0.297l-7-7c-0.187-0.187-0.297-0.438-0.297-0.703 0-0.547 0.453-1 1-1h14c0.547 0 1 0.453 1 1zM16 11c0 0.547-0.453 1-1 1h-14c-0.547 0-1-0.453-1-1 0-0.266 0.109-0.516 0.297-0.703l7-7c0.187-0.187 0.438-0.297 0.703-0.297s0.516 0.109 0.703 0.297l7 7c0.187 0.187 0.297 0.438 0.297 0.703z"></path>
</symbol>
<symbol id="wcv-icon-hdd" viewBox="0 0 36 32">
<title>hdd</title>
<path d="M36 19v6c0 1.657-1.343 3-3 3h-30c-1.657 0-3-1.343-3-3v-6c0-1.657 1.343-3 3-3h30c1.657 0 3 1.343 3 3zM33 14c0.001 0 0.003 0 0.004 0 0.693 0 1.352 0.142 1.952 0.398l-0.032-0.012-6.033-9.049c-0.546-0.81-1.46-1.336-2.496-1.336h-16.789c-1.037 0-1.95 0.526-2.489 1.325l-0.007 0.011-6.033 9.049c0.567-0.244 1.226-0.385 1.919-0.385 0.002 0 0.003 0 0.005 0h30zM30 20c-1.105 0-2 0.895-2 2s0.895 2 2 2 2-0.895 2-2-0.895-2-2-2zM24 20c-1.105 0-2 0.895-2 2s0.895 2 2 2 2-0.895 2-2-0.895-2-2-2z"></path>
</symbol>
<symbol id="wcv-icon-file-alt" viewBox="0 0 24 32">
<title>file-alt</title>
<path d="M18 15.5v1.75c0 0.413-0.337 0.75-0.75 0.75h-10.5c-0.412 0-0.75-0.337-0.75-0.75v-1.75c0-0.412 0.338-0.75 0.75-0.75h10.5c0.413 0 0.75 0.338 0.75 0.75zM17.25 20h-10.5c-0.412 0-0.75 0.337-0.75 0.75v1.75c0 0.413 0.338 0.75 0.75 0.75h10.5c0.413 0 0.75-0.337 0.75-0.75v-1.75c0-0.413-0.337-0.75-0.75-0.75zM24 8.244v20.756c0 1.656-1.344 3-3 3h-18c-1.656 0-3-1.344-3-3v-26c0-1.656 1.344-3 3-3h12.756c0.794 0 1.556 0.319 2.119 0.881l5.244 5.244c0.563 0.556 0.881 1.325 0.881 2.119zM16 3.244v4.756h4.756l-4.756-4.756zM21 29v-18h-6.5c-0.831 0-1.5-0.669-1.5-1.5v-6.5h-10v26h18z"></path>
</symbol>
<symbol id="wcv-icon-check-circle-o" viewBox="0 0 32 32">
<title>check-circle-o</title>
<path d="M16 0.5c-8.56 0-15.5 6.94-15.5 15.5s6.94 15.5 15.5 15.5 15.5-6.94 15.5-15.5-6.94-15.5-15.5-15.5zM16 3.5c6.908 0 12.5 5.591 12.5 12.5 0 6.908-5.591 12.5-12.5 12.5-6.908 0-12.5-5.591-12.5-12.5 0-6.908 5.591-12.5 12.5-12.5zM24.763 11.642l-1.409-1.42c-0.292-0.294-0.767-0.296-1.061-0.004l-8.835 8.764-3.737-3.767c-0.292-0.294-0.767-0.296-1.061-0.004l-1.42 1.409c-0.294 0.292-0.296 0.767-0.004 1.061l5.674 5.72c0.292 0.294 0.767 0.296 1.061 0.004l10.787-10.7c0.294-0.292 0.296-0.767 0.004-1.061z"></path>
</symbol>
<symbol id="wcv-icon-check-circle" viewBox="0 0 32 32">
<title>check-circle</title>
<path d="M31.5 16c0 8.56-6.94 15.5-15.5 15.5s-15.5-6.94-15.5-15.5 6.94-15.5 15.5-15.5 15.5 6.94 15.5 15.5zM14.207 24.207l11.5-11.5c0.39-0.39 0.39-1.024 0-1.414l-1.414-1.414c-0.39-0.391-1.024-0.391-1.414 0l-9.379 9.379-4.379-4.379c-0.39-0.39-1.024-0.39-1.414 0l-1.414 1.414c-0.391 0.39-0.391 1.024 0 1.414l6.5 6.5c0.391 0.391 1.024 0.391 1.414 0z"></path>
</symbol>
<symbol id="wcv-icon-home" viewBox="0 0 32 32">
<title>home</title>
<path d="M32 18.451l-16-12.42-16 12.42v-5.064l16-12.42 16 12.42zM28 18v12h-8v-8h-8v8h-8v-12l12-9z"></path>
</symbol>
<symbol id="wcv-icon-info-circle" viewBox="0 0 32 32">
<title>info-circle</title>
<path d="M16 0.5c-8.56 0-15.5 6.943-15.5 15.5 0 8.562 6.94 15.5 15.5 15.5s15.5-6.938 15.5-15.5c0-8.557-6.94-15.5-15.5-15.5zM16 7.375c1.45 0 2.625 1.175 2.625 2.625s-1.175 2.625-2.625 2.625-2.625-1.175-2.625-2.625 1.175-2.625 2.625-2.625zM19.5 23.25c0 0.414-0.336 0.75-0.75 0.75h-5.5c-0.414 0-0.75-0.336-0.75-0.75v-1.5c0-0.414 0.336-0.75 0.75-0.75h0.75v-4h-0.75c-0.414 0-0.75-0.336-0.75-0.75v-1.5c0-0.414 0.336-0.75 0.75-0.75h4c0.414 0 0.75 0.336 0.75 0.75v6.25h0.75c0.414 0 0.75 0.336 0.75 0.75v1.5z"></path>
</symbol>
<symbol id="wcv-icon-plane" viewBox="0 0 36 32">
<title>plane</title>
<path d="M30 12h-7.143l-6.569-11.496c-0.176-0.303-0.499-0.504-0.869-0.504-0 0-0 0-0 0h-4.094c-0.664 0-1.144 0.636-0.961 1.274l3.064 10.726h-6.429l-2.7-3.6c-0.189-0.252-0.486-0.4-0.8-0.4h-2.499c-0.651 0-1.128 0.611-0.97 1.242l1.969 6.758-1.969 6.758c-0.158 0.631 0.319 1.242 0.97 1.242h2.499c0.315 0 0.611-0.148 0.8-0.4l2.7-3.6h6.429l-3.064 10.725c-0.182 0.639 0.297 1.275 0.961 1.275h4.094c0.359 0 0.69-0.192 0.868-0.504l6.569-11.496h7.143c2.209 0 6-1.791 6-4s-3.791-4-6-4z"></path>
</symbol>
<symbol id="wcv-icon-plus" viewBox="0 0 28 32">
<title>plus</title>
<path d="M26 13h-9v-9c0-1.104-0.896-2-2-2h-2c-1.104 0-2 0.896-2 2v9h-9c-1.104 0-2 0.896-2 2v2c0 1.104 0.896 2 2 2h9v9c0 1.104 0.896 2 2 2h2c1.104 0 2-0.896 2-2v-9h9c1.104 0 2-0.896 2-2v-2c0-1.104-0.896-2-2-2z"></path>
</symbol>
<symbol id="wcv-icon-plus-square" viewBox="0 0 28 32">
<title>plus-square</title>
<path d="M25 2h-22c-1.656 0-3 1.344-3 3v22c0 1.656 1.344 3 3 3h22c1.656 0 3-1.344 3-3v-22c0-1.656-1.344-3-3-3zM23 17.75c0 0.413-0.337 0.75-0.75 0.75h-5.75v5.75c0 0.413-0.337 0.75-0.75 0.75h-3.5c-0.412 0-0.75-0.337-0.75-0.75v-5.75h-5.75c-0.412 0-0.75-0.337-0.75-0.75v-3.5c0-0.412 0.338-0.75 0.75-0.75h5.75v-5.75c0-0.412 0.338-0.75 0.75-0.75h3.5c0.413 0 0.75 0.338 0.75 0.75v5.75h5.75c0.413 0 0.75 0.338 0.75 0.75v3.5z"></path>
</symbol>
<symbol id="wcv-icon-plus-circle" viewBox="0 0 32 32">
<title>plus-circle</title>
<path d="M16 0.5c-8.563 0-15.5 6.938-15.5 15.5s6.938 15.5 15.5 15.5 15.5-6.938 15.5-15.5-6.938-15.5-15.5-15.5zM25 17.75c0 0.413-0.337 0.75-0.75 0.75h-5.75v5.75c0 0.413-0.337 0.75-0.75 0.75h-3.5c-0.412 0-0.75-0.337-0.75-0.75v-5.75h-5.75c-0.412 0-0.75-0.337-0.75-0.75v-3.5c0-0.412 0.338-0.75 0.75-0.75h5.75v-5.75c0-0.412 0.338-0.75 0.75-0.75h3.5c0.413 0 0.75 0.338 0.75 0.75v5.75h5.75c0.413 0 0.75 0.338 0.75 0.75v3.5z"></path>
</symbol>
<symbol id="wcv-icon-plus-square-o" viewBox="0 0 24 24">
	<path fill="currentColor" d="M11 17h2v-4h4v-2h-4V7h-2v4H7v2h4zm-6 4q-.825 0-1.412-.587T3 19V5q0-.825.588-1.412T5 3h14q.825 0 1.413.588T21 5v14q0 .825-.587 1.413T19 21zm0-2h14V5H5zM5 5v14z" />
</symbol>
<symbol id="wcv-icon-flag" viewBox="0 0 32 32">
<title>flag</title>
<path d="M0 0h4v32h-4v-32z"></path>
<path d="M26 20.094c2.582 0 4.83-0.625 6-1.547v-16c-1.17 0.922-3.418 1.547-6 1.547s-4.83-0.625-6-1.547v16c1.17 0.922 3.418 1.547 6 1.547z"></path>
<path d="M19 1.016c-1.466-0.623-3.61-1.016-6-1.016-3.012 0-5.635 0.625-7 1.547v16c1.365-0.922 3.988-1.547 7-1.547 2.39 0 4.534 0.393 6 1.016v-16z"></path>
</symbol>
<symbol id="wcv-icon-dashboard" viewBox="0 0 32 32">
<title>dashboard</title>
<path d="M18.6667 28C18.313 28 17.9739 27.8595 17.7239 27.6095C17.4738 27.3594 17.3333 27.0203 17.3333 26.6667V16C17.3333 15.6464 17.4738 15.3072 17.7239 15.0572C17.9739 14.8071 18.313 14.6667 18.6667 14.6667H26.6667C27.0203 14.6667 27.3594 14.8071 27.6095 15.0572C27.8595 15.3072 28 15.6464 28 16V26.6667C28 27.0203 27.8595 27.3594 27.6095 27.6095C27.3594 27.8595 27.0203 28 26.6667 28H18.6667ZM5.33333 17.3333C4.97971 17.3333 4.64057 17.1929 4.39052 16.9428C4.14048 16.6928 4 16.3536 4 16V5.33333C4 4.97971 4.14048 4.64057 4.39052 4.39052C4.64057 4.14048 4.97971 4 5.33333 4H13.3333C13.687 4 14.0261 4.14048 14.2761 4.39052C14.5262 4.64057 14.6667 4.97971 14.6667 5.33333V16C14.6667 16.3536 14.5262 16.6928 14.2761 16.9428C14.0261 17.1929 13.687 17.3333 13.3333 17.3333H5.33333ZM12 14.6667V6.66667H6.66667V14.6667H12ZM5.33333 28C4.97971 28 4.64057 27.8595 4.39052 27.6095C4.14048 27.3594 4 27.0203 4 26.6667V21.3333C4 20.9797 4.14048 20.6406 4.39052 20.3905C4.64057 20.1405 4.97971 20 5.33333 20H13.3333C13.687 20 14.0261 20.1405 14.2761 20.3905C14.5262 20.6406 14.6667 20.9797 14.6667 21.3333V26.6667C14.6667 27.0203 14.5262 27.3594 14.2761 27.6095C14.0261 27.8595 13.687 28 13.3333 28H5.33333ZM6.66667 25.3333H12V22.6667H6.66667V25.3333ZM20 25.3333H25.3333V17.3333H20V25.3333ZM17.3333 5.33333C17.3333 4.97971 17.4738 4.64057 17.7239 4.39052C17.9739 4.14048 18.313 4 18.6667 4H26.6667C27.0203 4 27.3594 4.14048 27.6095 4.39052C27.8595 4.64057 28 4.97971 28 5.33333V10.6667C28 11.0203 27.8595 11.3594 27.6095 11.6095C27.3594 11.8595 27.0203 12 26.6667 12H18.6667C18.313 12 17.9739 11.8595 17.7239 11.6095C17.4738 11.3594 17.3333 11.0203 17.3333 10.6667V5.33333ZM20 6.66667V9.33333H25.3333V6.66667H20Z" fill="white"/>
</symbol>
<symbol id="wcv-icon-tshirt" viewBox="0 0 32 32">
<title>tshirt</title>
<path d="M20 5.33337L28 8.00004V14.6667H24V25.3334C24 25.687 23.8595 26.0261 23.6095 26.2762C23.3594 26.5262 23.0203 26.6667 22.6667 26.6667H9.33333C8.97971 26.6667 8.64057 26.5262 8.39052 26.2762C8.14048 26.0261 8 25.687 8 25.3334V14.6667H4V8.00004L12 5.33337C12 6.39424 12.4214 7.41166 13.1716 8.1618C13.9217 8.91195 14.9391 9.33337 16 9.33337C17.0609 9.33337 18.0783 8.91195 18.8284 8.1618C19.5786 7.41166 20 6.39424 20 5.33337Z" stroke-width="2" stroke-linecap="round" stroke-linejoin="round"/>
</symbol>
<symbol id="wcv-icon-orders" viewBox="0 0 32 32">
<title>orders</title>
<path d="M23.1615 26.436L26.9482 22.708L26.1135 21.872L23.1615 24.7827L21.8882 23.4827L21.0522 24.3254L23.1615 26.436ZM9.02683 11.6414H22.9762V10.308H9.0255L9.02683 11.6414ZM24.0002 29.488C22.5148 29.488 21.2548 28.9703 20.2202 27.9347C19.1846 26.9 18.6668 25.64 18.6668 24.1547C18.6668 22.6694 19.1846 21.4089 20.2202 20.3734C21.2557 19.3378 22.5157 18.8205 24.0002 18.8214C25.4846 18.8223 26.7451 19.3396 27.7815 20.3734C28.8179 21.4072 29.3353 22.6676 29.3335 24.1547C29.3335 25.6391 28.8162 26.8992 27.7815 27.9347C26.7451 28.9703 25.4846 29.488 24.0002 29.488ZM5.3335 27.692V7.48804C5.3335 6.89071 5.54327 6.38226 5.96283 5.96271C6.38239 5.54315 6.89083 5.33337 7.48816 5.33337H24.5135C25.1091 5.33337 25.6171 5.54315 26.0375 5.96271C26.4571 6.38226 26.6668 6.89071 26.6668 7.48804V15.4134C26.4499 15.3334 26.2348 15.2649 26.0215 15.208C25.8073 15.1512 25.5779 15.1067 25.3335 15.0747V7.48804C25.3335 7.28271 25.2482 7.09426 25.0775 6.92271C24.9068 6.75115 24.7184 6.66582 24.5122 6.66671H7.48816C7.28283 6.66671 7.09438 6.75204 6.92283 6.92271C6.75127 7.09337 6.66594 7.28182 6.66683 7.48804V25.4H15.1255C15.1859 25.7645 15.2642 26.1209 15.3602 26.4694C15.4571 26.8178 15.5917 27.1503 15.7642 27.4667L15.7188 27.512L14.2055 26.4107L12.4108 27.692L10.6162 26.4107L8.8215 27.692L7.0255 26.4107L5.3335 27.692ZM9.02683 21.692H15.3055C15.3553 21.4476 15.4166 21.2187 15.4895 21.0054C15.5624 20.792 15.6477 20.5765 15.7455 20.3587H9.02683V21.692ZM9.02683 16.6667H18.7735C19.2091 16.3227 19.6757 16.036 20.1735 15.8067C20.6713 15.5765 21.2033 15.4187 21.7695 15.3334H9.0255L9.02683 16.6667Z" fill="white"/>
</symbol>
<symbol id="wcv-icon-reports" viewBox="0 0 32 32">
<title>reports</title>
<path d="M18.6668 2.66663H8.00016C6.5335 2.66663 5.3335 3.86663 5.3335 5.33329V26.6666C5.3335 28.1333 6.5335 29.3333 8.00016 29.3333H24.0002C25.4668 29.3333 26.6668 28.1333 26.6668 26.6666V10.6666L18.6668 2.66663ZM24.0002 26.6666H8.00016V5.33329H17.3335V12H24.0002V26.6666ZM12.0002 17.3333V25.3333H9.3335V17.3333H12.0002ZM20.0002 20V25.3333H22.6668V20H20.0002ZM14.6668 14.6666V25.3333H17.3335V14.6666H14.6668Z" fill="white"/>
</symbol>
<symbol id="wcv-icon-settings" viewBox="0 0 33 32">
<title>settings</title>
<path d="M16.5889 9.77783C13.1223 9.77783 10.3667 12.5334 10.3667 16.0001C10.3667 19.4667 13.1223 22.2223 16.5889 22.2223C20.0556 22.2223 22.8111 19.4667 22.8111 16.0001C22.8111 12.5334 20.0556 9.77783 16.5889 9.77783ZM16.5889 20.4445C14.1 20.4445 12.1445 18.4889 12.1445 16.0001C12.1445 13.5112 14.1 11.5556 16.5889 11.5556C19.0778 11.5556 21.0334 13.5112 21.0334 16.0001C21.0334 18.4889 19.0778 20.4445 16.5889 20.4445Z" fill="white"/>
<path d="M29.6556 13.0667L27.1667 12.2667L26.6334 10.9334L27.8778 8.62228C28.1445 8.08894 28.0556 7.37783 27.6112 6.93339L25.4778 4.80005C25.0334 4.35561 24.3223 4.26672 23.7889 4.53339L21.4778 5.77783L20.1445 5.2445L19.3445 2.75561C19.1667 2.22228 18.6334 1.77783 18.0112 1.77783H14.9889C14.3667 1.77783 13.8334 2.22228 13.7445 2.8445L12.9445 5.33339C12.4112 5.42228 11.9667 5.60005 11.5223 5.86672L9.21117 4.62228C8.67783 4.35561 7.96672 4.4445 7.52228 4.88894L5.38894 7.02228C4.9445 7.46672 4.85561 8.17783 5.12228 8.71117L6.27783 10.9334C6.10005 11.3778 5.92228 11.9112 5.7445 12.3556L3.25561 13.1556C2.72228 13.3334 2.27783 13.8667 2.27783 14.4889V17.5112C2.27783 18.1334 2.72228 18.6667 3.3445 18.8445L5.83339 19.6445L6.36672 20.9778L5.12228 23.2889C4.85561 23.8223 4.9445 24.5334 5.38894 24.9778L7.52228 27.1112C7.96672 27.5556 8.67783 27.6445 9.21117 27.3778L11.5223 26.1334L12.8556 26.6667L13.6556 29.2445C13.8334 29.7778 14.3667 30.2223 14.9889 30.2223H18.0112C18.6334 30.2223 19.1667 29.7778 19.3445 29.2445L20.1445 26.6667L21.4778 26.1334L23.7889 27.3778C24.3223 27.6445 25.0334 27.5556 25.4778 27.1112L27.6112 24.9778C28.0556 24.5334 28.1445 23.8223 27.8778 23.2889L26.6334 20.9778L27.1667 19.6445L29.7445 18.8445C30.2778 18.6667 30.7223 18.1334 30.7223 17.5112V14.4889C30.7223 13.8667 30.2778 13.2445 29.6556 13.0667ZM28.9445 17.2445L25.7445 18.2223L25.6556 18.6667L24.8556 20.5334L24.5889 20.9778L26.1889 23.9112L24.4112 25.6889L21.4778 24.0889L21.0334 24.3556C20.4112 24.7112 19.7889 24.9778 19.1667 25.1556L18.7223 25.2445L17.7445 28.4445H15.2556L14.2778 25.2445L13.8334 25.1556L11.9667 24.3556L11.5223 24.0889L8.58894 25.6889L6.81117 23.9112L8.41117 20.9778L8.1445 20.5334C7.78894 19.9112 7.52228 19.2889 7.3445 18.6667L7.25561 18.2223L4.05561 17.2445V14.7556L7.07783 13.8667L7.25561 13.4223C7.43339 12.7112 7.70005 12.0889 8.05561 11.4667L8.32228 11.0223L6.81117 8.08894L8.58894 6.31117L11.4334 7.91117L11.8778 7.6445C12.5001 7.28894 13.1223 7.02228 13.8334 6.8445L14.2778 6.66672L15.2556 3.55561H17.7445L18.7223 6.66672L19.1667 6.8445C19.7889 7.02228 20.4112 7.28894 21.0334 7.6445L21.4778 7.91117L24.4112 6.31117L26.1889 8.08894L24.5889 11.0223L24.8556 11.4667C25.2112 12.0889 25.4778 12.7112 25.6556 13.3334L25.7445 13.7778L28.9445 14.7556V17.2445Z" fill="white"/>
</symbol>
<symbol id="wcv-icon-rating" viewBox="0 0 32 32">
<title>rating</title>
<path d="M28.3779 11.0344L20.4436 9.88129L16.8967 2.69066C16.7998 2.49379 16.6404 2.33441 16.4436 2.23754C15.9498 1.99379 15.3498 2.19691 15.1029 2.69066L11.5561 9.88129L3.62169 11.0344C3.40294 11.0657 3.20294 11.1688 3.04981 11.325C2.86469 11.5153 2.76269 11.7713 2.7662 12.0367C2.76972 12.3022 2.87847 12.5554 3.06856 12.7407L8.80919 18.3375L7.45294 26.2407C7.42113 26.4245 7.44148 26.6136 7.51166 26.7865C7.58185 26.9593 7.69907 27.1091 7.85003 27.2187C8.00099 27.3284 8.17965 27.3935 8.36575 27.4068C8.55185 27.42 8.73795 27.3809 8.90294 27.2938L15.9998 23.5625L23.0967 27.2938C23.2904 27.3969 23.5154 27.4313 23.7311 27.3938C24.2748 27.3 24.6404 26.7844 24.5467 26.2407L23.1904 18.3375L28.9311 12.7407C29.0873 12.5875 29.1904 12.3875 29.2217 12.1688C29.3061 11.6219 28.9248 11.1157 28.3779 11.0344ZM20.7748 17.55L21.9029 24.1219L15.9998 21.0219L10.0967 24.125L11.2248 17.5532L6.44981 12.8969L13.0498 11.9375L15.9998 5.95941L18.9498 11.9375L25.5498 12.8969L20.7748 17.55Z" fill="white"/>
</symbol>
<symbol id="wcv-icon-logout" viewBox="0 0 32 32">
<title>logout</title>
<path d="M6.66667 6.66667H16V4H6.66667C5.2 4 4 5.2 4 6.66667V25.3333C4 26.8 5.2 28 6.66667 28H16V25.3333H6.66667V6.66667ZM28 16L22.6667 10.6667V14.6667H12V17.3333H22.6667V21.3333L28 16Z" fill="white"/>
</symbol>
<symbol id="wcv-icon-coupons" viewBox="0 0 32 32">
<title>coupon</title>
<path d="M19.7332 10.6667L21.3332 12.2667L12.2665 21.3334L10.6665 19.7334L19.7332 10.6667ZM5.33317 5.33337H26.6665C28.1465 5.33337 29.3332 6.52004 29.3332 8.00004V13.3334C28.6259 13.3334 27.9476 13.6143 27.4476 14.1144C26.9475 14.6145 26.6665 15.2928 26.6665 16C26.6665 16.7073 26.9475 17.3856 27.4476 17.8857C27.9476 18.3858 28.6259 18.6667 29.3332 18.6667V24C29.3332 25.48 28.1465 26.6667 26.6665 26.6667H5.33317C4.62593 26.6667 3.94765 26.3858 3.44755 25.8857C2.94746 25.3856 2.6665 24.7073 2.6665 24V18.6667C4.1465 18.6667 5.33317 17.48 5.33317 16C5.33317 15.2928 5.05222 14.6145 4.55212 14.1144C4.05203 13.6143 3.37375 13.3334 2.6665 13.3334V8.00004C2.6665 7.2928 2.94746 6.61452 3.44755 6.11442C3.94765 5.61433 4.62593 5.33337 5.33317 5.33337ZM5.33317 8.00004V11.3867C6.14341 11.8539 6.81631 12.5263 7.28418 13.3361C7.75204 14.146 7.99837 15.0648 7.99837 16C7.99837 16.9353 7.75204 17.8541 7.28418 18.664C6.81631 19.4738 6.14341 20.1462 5.33317 20.6134V24H26.6665V20.6134C25.8563 20.1462 25.1834 19.4738 24.7155 18.664C24.2476 17.8541 24.0013 16.9353 24.0013 16C24.0013 15.0648 24.2476 14.146 24.7155 13.3361C25.1834 12.5263 25.8563 11.8539 26.6665 11.3867V8.00004H5.33317ZM12.6665 10.6667C13.7732 10.6667 14.6665 11.56 14.6665 12.6667C14.6665 13.7734 13.7732 14.6667 12.6665 14.6667C11.5598 14.6667 10.6665 13.7734 10.6665 12.6667C10.6665 11.56 11.5598 10.6667 12.6665 10.6667ZM19.3332 17.3334C20.4398 17.3334 21.3332 18.2267 21.3332 19.3334C21.3332 20.44 20.4398 21.3334 19.3332 21.3334C18.2265 21.3334 17.3332 20.44 17.3332 19.3334C17.3332 18.2267 18.2265 17.3334 19.3332 17.3334Z" fill="white"/>
</symbol>
<symbol id="wcv-icon-commission" viewBox="0 0 32 32">
<title>commission</title>
<path style="fill:none;stroke-width:2;stroke-linecap:round;stroke-linejoin:round;stroke:rgb(255,255,255);stroke-opacity:1;stroke-miterlimit:4;" d="M 3.999023 6 C 3.999023 7.658203 7.582031 9 12 9 C 16.417969 9 20.000977 7.658203 20.000977 6 C 20.000977 4.341797 16.417969 3 12 3 C 7.582031 3 3.999023 4.341797 3.999023 6 Z M 3.999023 6 " transform="matrix(1.333333,0,0,1.333333,0,0)"/>
<path style="fill:none;stroke-width:2;stroke-linecap:round;stroke-linejoin:round;stroke:rgb(255,255,255);stroke-opacity:1;stroke-miterlimit:4;" d="M 3.999023 6 L 3.999023 12 C 3.999023 13.658203 7.582031 15 12 15 C 12.416016 15 12.823242 14.988281 13.21875 14.964844 M 20.000977 9.999023 L 20.000977 6 " transform="matrix(1.333333,0,0,1.333333,0,0)"/>
<path style="fill:none;stroke-width:2;stroke-linecap:round;stroke-linejoin:round;stroke:rgb(255,255,255);stroke-opacity:1;stroke-miterlimit:4;" d="M 3.999023 12 L 3.999023 18 C 3.999023 19.658203 7.582031 21 12 21 C 12.351562 21 12.697266 20.991211 13.037109 20.973633 M 21 15 L 18.500977 15 C 18.102539 15 17.72168 15.158203 17.44043 15.439453 C 17.15918 15.720703 17.000977 16.101562 17.000977 16.5 C 17.000977 16.898438 17.15918 17.279297 17.44043 17.560547 C 17.72168 17.841797 18.102539 18 18.500977 18 L 19.5 18 C 19.898438 18 20.279297 18.158203 20.560547 18.439453 C 20.841797 18.720703 21 19.101562 21 19.5 C 21 19.898438 20.841797 20.279297 20.560547 20.560547 C 20.279297 20.841797 19.898438 21 19.5 21 L 17.000977 21 M 18.999023 21 L 18.999023 21.999023 M 18.999023 14.000977 L 18.999023 15 " transform="matrix(1.333333,0,0,1.333333,0,0)"/>
</symbol>
<symbol id="wcv-icon-refund" viewBox="0 0 32 32">
<title>refund</title>
<path xmlns="http://www.w3.org/2000/svg" style=" stroke:none;fill-rule:nonzero;fill:rgb(255,255,255);fill-opacity:1;" d="M 26.671875 10.667969 L 26.671875 6.667969 L 5.339844 6.667969 L 5.339844 10.667969 Z M 26.671875 13.332031 L 5.339844 13.332031 L 5.339844 25.332031 L 26.671875 25.332031 Z M 4.007812 4 L 28.007812 4 C 28.359375 4 28.699219 4.140625 28.949219 4.390625 C 29.199219 4.640625 29.339844 4.980469 29.339844 5.332031 L 29.339844 26.667969 C 29.339844 27.019531 29.199219 27.359375 28.949219 27.609375 C 28.699219 27.859375 28.359375 28 28.007812 28 L 4.007812 28 C 3.652344 28 3.3125 27.859375 3.0625 27.609375 C 2.8125 27.359375 2.671875 27.019531 2.671875 26.667969 L 2.671875 5.332031 C 2.671875 4.980469 2.8125 4.640625 3.0625 4.390625 C 3.3125 4.140625 3.652344 4 4.007812 4 Z M 14.671875 18.667969 L 22.671875 18.667969 L 22.671875 21.332031 L 8.671875 21.332031 L 14.671875 15.332031 Z M 14.671875 18.667969 "/>
</symbol>
<symbol id="wcv-icon-view-store" viewBox="0 0 32 32">
<title>view-store</title>
<path style=" stroke:none;fill-rule:nonzero;fill:rgb(255,255,255);fill-opacity:1;" d="M 25.53125 3.960938 C 25.292969 3.566406 24.957031 3.242188 24.558594 3.015625 C 24.15625 2.789062 23.707031 2.667969 23.246094 2.667969 L 8.753906 2.667969 C 7.824219 2.667969 6.949219 3.164062 6.46875 3.960938 L 2.855469 9.980469 C 2.734375 10.1875 2.667969 10.425781 2.667969 10.667969 C 2.671875 11.953125 3.144531 13.195312 4 14.15625 L 4 25.332031 C 4 26.804688 5.195312 28 6.667969 28 L 25.332031 28 C 26.804688 28 28 26.804688 28 25.332031 L 28 14.15625 C 28.855469 13.195312 29.328125 11.953125 29.332031 10.667969 C 29.332031 10.425781 29.265625 10.1875 29.144531 9.980469 Z M 26.644531 11 C 26.5625 11.644531 26.25 12.238281 25.761719 12.667969 C 25.277344 13.097656 24.648438 13.332031 24 13.332031 C 22.53125 13.332031 21.332031 12.136719 21.332031 10.667969 C 21.332031 10.574219 21.300781 10.496094 21.28125 10.410156 L 21.308594 10.40625 L 20.292969 5.332031 L 23.246094 5.332031 Z M 14.425781 5.332031 L 17.574219 5.332031 L 18.65625 10.753906 C 18.609375 12.183594 17.441406 13.332031 16 13.332031 C 14.558594 13.332031 13.390625 12.183594 13.34375 10.753906 Z M 8.753906 5.332031 L 11.707031 5.332031 L 10.691406 10.40625 L 10.71875 10.410156 C 10.699219 10.496094 10.667969 10.574219 10.667969 10.667969 C 10.667969 12.136719 9.46875 13.332031 8 13.332031 C 7.351562 13.332031 6.722656 13.097656 6.238281 12.667969 C 5.75 12.238281 5.4375 11.644531 5.355469 11 Z M 13.332031 25.332031 L 13.332031 21.332031 L 18.667969 21.332031 L 18.667969 25.332031 Z M 21.332031 25.332031 L 21.332031 21.332031 C 21.332031 19.863281 20.136719 18.667969 18.667969 18.667969 L 13.332031 18.667969 C 11.863281 18.667969 10.667969 19.863281 10.667969 21.332031 L 10.667969 25.332031 L 6.667969 25.332031 L 6.667969 15.8125 C 7.09375 15.921875 7.535156 16 8 16 C 8.757812 16 9.503906 15.839844 10.195312 15.527344 C 10.882812 15.214844 11.5 14.757812 12 14.191406 C 12.976562 15.300781 14.410156 16 16 16 C 17.589844 16 19.023438 15.300781 20 14.191406 C 20.5 14.757812 21.117188 15.214844 21.804688 15.527344 C 22.496094 15.839844 23.242188 16 24 16 C 24.464844 16 24.90625 15.921875 25.332031 15.8125 L 25.332031 25.332031 Z M 21.332031 25.332031 "/>
</symbol>
<symbol id="wcv-icon-dashboard-default" viewBox="0 0 32 32">
<title>dashboard-default</title>
<path style=" stroke:none;fill-rule:nonzero;fill:rgb(255,255,255);fill-opacity:1;" d="M 24.171875 16 L 25.851562 14.320312 C 26.441406 13.734375 27.1875 13.414062 28 13.332031 L 28 12 L 20 4 L 6.667969 4 C 5.1875 4 4 5.1875 4 6.667969 L 4 25.332031 C 4 26.039062 4.28125 26.71875 4.78125 27.21875 C 5.28125 27.71875 5.960938 28 6.667969 28 L 14.667969 28 L 14.667969 25.507812 L 14.839844 25.332031 L 6.667969 25.332031 L 6.667969 6.667969 L 16 6.667969 L 16 16 Z M 18.667969 6 L 26 13.332031 L 18.667969 13.332031 Z M 25.507812 18.441406 L 28.226562 21.160156 L 20.054688 29.332031 L 17.332031 29.332031 L 17.332031 26.613281 Z M 30.464844 18.921875 L 29.160156 20.226562 L 26.441406 17.507812 L 27.746094 16.199219 C 28 15.933594 28.441406 15.933594 28.707031 16.199219 L 30.464844 17.960938 C 30.734375 18.226562 30.734375 18.667969 30.464844 18.921875 Z M 30.464844 18.921875 "/>
</symbol>
<symbol id="wcv-icon-dashboard-more" viewBox="0 0 32 32">
<title>dashboard-more</title>
<path d="M6.66675 10H33.3334M6.66675 20H33.3334M21.6667 30H33.3334" stroke="white" stroke-width="2" stroke-linecap="round" stroke-linejoin="round"/>
</symbol>
<symbol id="wcv-icon-setup-store" viewBox="0 0 20 19">
<title>setup-store</title>
<path d="M17.148 0.971C16.9697 0.675655 16.7183 0.431188 16.4181 0.261128C16.1179 0.0910674 15.779 0.00113973 15.434 0H4.566C3.868 0 3.211 0.372 2.852 0.971L0.143 5.485C0.0494898 5.64051 5.74309e-05 5.81854 0 6C0.00399371 6.96521 0.359494 7.89591 1 8.618V17C1 18.103 1.897 19 3 19H17C18.103 19 19 18.103 19 17V8.618C19.6405 7.89591 19.996 6.96521 20 6C19.9999 5.81854 19.9505 5.64051 19.857 5.485L17.148 0.971ZM17.984 6.251C17.9229 6.73408 17.6876 7.17827 17.3224 7.50027C16.9571 7.82227 16.4869 7.99995 16 8C14.897 8 14 7.103 14 6C14 5.932 13.975 5.872 13.961 5.808L13.981 5.804L13.22 2H15.434L17.984 6.251ZM8.819 2H11.18L11.993 6.065C11.958 7.137 11.08 8 10 8C8.92 8 8.042 7.137 8.007 6.065L8.819 2ZM4.566 2H6.78L6.02 5.804L6.04 5.808C6.025 5.872 6 5.932 6 6C6 7.103 5.103 8 4 8C3.51307 7.99995 3.04288 7.82227 2.67762 7.50027C2.31236 7.17827 2.07711 6.73408 2.016 6.251L4.566 2ZM8 17V14H12V17H8ZM14 17V14C14 12.897 13.103 12 12 12H8C6.897 12 6 12.897 6 14V17H3V9.858C3.321 9.941 3.652 10 4 10C4.56771 9.99966 5.12885 9.87847 5.6461 9.6445C6.16336 9.41053 6.62488 9.06913 7 8.643C7.733 9.475 8.807 10 10 10C11.193 10 12.267 9.475 13 8.643C13.3751 9.06913 13.8366 9.41053 14.3539 9.6445C14.8712 9.87847 15.4323 9.99966 16 10C16.348 10 16.679 9.941 17 9.858V17H14Z" />
</symbol>
<symbol id="wcv-icon-setup-products" viewBox="0 0 24 24">
<title>setup-products</title>
<path d="M11.628 0.0987581C11.7413 0.0340403 11.8695 0 12 0C12.1305 0 12.2587 0.0340403 12.372 0.0987581L17.997 3.31326C18.1118 3.37883 18.2072 3.47357 18.2736 3.5879C18.34 3.70222 18.375 3.83206 18.375 3.96426V9.95676L23.622 12.9568C23.7364 13.0221 23.8315 13.1163 23.8978 13.2301C23.9642 13.3439 23.9994 13.4731 24 13.6048V20.0338C24 20.166 23.965 20.2958 23.8986 20.4101C23.8322 20.5244 23.7368 20.6192 23.622 20.6848L17.997 23.8993C17.8837 23.964 17.7555 23.998 17.625 23.998C17.4945 23.998 17.3663 23.964 17.253 23.8993L12 20.8993L6.747 23.9008C6.6337 23.9655 6.50548 23.9995 6.375 23.9995C6.24452 23.9995 6.1163 23.9655 6.003 23.9008L0.378 20.6863C0.263209 20.6207 0.16779 20.5259 0.101408 20.4116C0.0350269 20.2973 4.26406e-05 20.1675 0 20.0353L0 13.6063C4.26406e-05 13.4741 0.0350269 13.3442 0.101408 13.2299C0.16779 13.1156 0.263209 13.0208 0.378 12.9553L5.625 9.95676V3.96426C5.62504 3.83206 5.66003 3.70222 5.72641 3.5879C5.79279 3.47357 5.88821 3.37883 6.003 3.31326L11.628 0.0987581ZM6.375 11.2558L2.262 13.6063L6.375 15.9568L10.488 13.6063L6.375 11.2558ZM11.25 14.8993L7.125 17.2558V21.9568L11.25 19.6003V14.8993ZM12.75 19.6003L16.875 21.9568V17.2558L12.75 14.8993V19.6003ZM13.512 13.6063L17.625 15.9568L21.738 13.6063L17.625 11.2558L13.512 13.6063ZM16.875 9.95676V5.25576L12.75 7.61376V12.3148L16.875 9.95676ZM11.25 12.3148V7.61376L7.125 5.25576V9.95676L11.25 12.3148ZM7.887 3.96426L12 6.31476L16.113 3.96426L12 1.61376L7.887 3.96426ZM22.5 14.8993L18.375 17.2558V21.9568L22.5 19.6003V14.8993ZM5.625 21.9568V17.2558L1.5 14.8993V19.6003L5.625 21.9568Z" />
</symbol>
<symbol id="wcv-icon-setup-payout" viewBox="0 0 24 24">
<title>setup-payout</title>
<path d="M14 4h-4C6.229 4 4.343 4 3.172 5.172c-.844.843-1.08 2.057-1.146 4.078h19.948c-.066-2.021-.302-3.235-1.146-4.078C19.657 4 17.771 4 14 4"/>
<path fill-rule="evenodd" d="M14 20h-4c-3.771 0-5.657 0-6.828-1.172S2 15.771 2 12q0-.662.002-1.25h19.996Q22 11.338 22 12c0 3.771 0 5.657-1.172 6.828S17.771 20 14 20m2.045-7.75c.433 0 .83 0 1.152.043c.356.048.731.16 1.04.47s.422.684.47 1.04c.043.323.043.72.043 1.152v.09c0 .433 0 .83-.043 1.152c-.048.356-.16.731-.47 1.04s-.684.422-1.04.47c-.323.043-.72.043-1.152.043h-.09c-.433 0-.83 0-1.152-.043c-.356-.048-.731-.16-1.04-.47s-.422-.684-.47-1.04c-.043-.323-.043-.72-.043-1.152v-.09c0-.433 0-.83.043-1.152c.048-.356.16-.731.47-1.04s.684-.422 1.04-.47c.323-.043.72-.043 1.152-.043zM5.25 13.5a.75.75 0 0 1 .75-.75h2a.75.75 0 0 1 0 1.5H6a.75.75 0 0 1-.75-.75m0 3a.75.75 0 0 1 .75-.75h4a.75.75 0 0 1 0 1.5H6a.75.75 0 0 1-.75-.75" clip-rule="evenodd"/><path fill="white" d="m14.823 13.823l.003-.001l.01-.005a.7.7 0 0 1 .167-.037c.21-.028.504-.03.997-.03s.787.002.997.03a.7.7 0 0 1 .177.042l.003.001l.001.003l.005.01c.009.022.024.07.037.167c.028.21.03.504.03.997s-.002.787-.03.997a.7.7 0 0 1-.042.177l-.001.003l-.003.001l-.01.005a.7.7 0 0 1-.167.037c-.21.028-.504.03-.997.03s-.787-.002-.997-.03a.7.7 0 0 1-.177-.042l-.003-.001l-.001-.003l-.005-.01a.7.7 0 0 1-.037-.167c-.028-.21-.03-.504-.03-.997s.002-.787.03-.997a.7.7 0 0 1 .042-.177z"/>
</symbol>
<symbol id="wcv-icon-setup-social" viewBox="0 0 18 18.5">
<title>setup-social</title>
<path fill-rule="evenodd" clip-rule="evenodd" d="M9.47051 10.8767C9.20622 10.7049 8.97836 10.4828 8.79992 10.223C8.62149 9.96315 8.49599 9.67072 8.43058 9.36239C8.36517 9.05406 8.36113 8.73586 8.4187 8.42597C8.47627 8.11607 8.59432 7.82056 8.76611 7.55629L11.3833 3.53269C11.5523 3.26244 11.7734 3.02856 12.0338 2.8447C12.2942 2.66083 12.5885 2.53068 12.8998 2.46182C13.211 2.39297 13.5328 2.38679 13.8464 2.44366C14.16 2.50053 14.4592 2.6193 14.7264 2.79304C14.9936 2.96678 15.2236 3.19201 15.4028 3.45558C15.5821 3.71915 15.707 4.01579 15.7703 4.32817C15.8337 4.64055 15.8342 4.96242 15.7718 5.27499C15.7094 5.58756 15.5853 5.88458 15.4069 6.14869L12.7909 10.1735C12.4438 10.707 11.899 11.0809 11.2763 11.2127C10.6536 11.3446 10.0041 11.2237 9.47051 10.8767ZM6.54011 11.1191C6.13739 10.3619 5.94491 9.51059 5.98269 8.65378C6.02046 7.79697 6.28711 6.96593 6.75491 6.24709L9.37091 2.22349C10.065 1.15621 11.1547 0.408376 12.4002 0.144513C13.0169 0.0138607 13.6533 0.00595824 14.2731 0.121257C14.8929 0.236555 15.4838 0.472796 16.0123 0.816492C16.5408 1.16019 16.9964 1.60461 17.3531 2.12437C17.7098 2.64414 17.9606 3.22908 18.0913 3.84579C18.2219 4.4625 18.2298 5.09891 18.1145 5.71867C17.9992 6.33844 17.763 6.92943 17.4193 7.45789L14.8033 11.4815C14.3481 12.182 13.718 12.7515 12.9752 13.1338C12.2324 13.5162 11.4027 13.698 10.5682 13.6614C9.73357 13.6248 8.92298 13.371 8.21653 12.9251C7.51008 12.4793 6.93223 11.8567 6.54011 11.1191Z" />
<path fill-rule="evenodd" clip-rule="evenodd" d="M3.53301 15.6035C3.26872 15.4318 3.04086 15.2097 2.86242 14.9498C2.68399 14.69 2.55849 14.3976 2.49308 14.0892C2.42767 13.7809 2.42363 13.4627 2.4812 13.1528C2.53877 12.8429 2.65682 12.5474 2.82861 12.2831L5.44581 8.25955C5.6148 7.9893 5.83593 7.75541 6.0963 7.57155C6.35666 7.38769 6.65104 7.25753 6.96226 7.18868C7.27347 7.11982 7.59528 7.11365 7.90891 7.17052C8.22253 7.22739 8.52169 7.34616 8.78892 7.5199C9.05614 7.69364 9.28608 7.91887 9.46532 8.18244C9.64455 8.44601 9.76949 8.74264 9.83284 9.05502C9.89618 9.36741 9.89667 9.68928 9.83428 10.0018C9.77188 10.3144 9.64784 10.6114 9.46941 10.8755L6.85341 14.9003C6.50634 15.4339 5.96153 15.8077 5.33884 15.9396C4.71615 16.0715 4.06657 15.9506 3.53301 15.6035ZM0.602607 15.8459C0.199891 15.0887 0.00741085 14.2374 0.0451866 13.3806C0.0829623 12.5238 0.349614 11.6928 0.817407 10.9739L3.43341 6.95155C3.77702 6.42308 4.22136 5.96747 4.74106 5.61073C5.26076 5.25399 5.84563 5.0031 6.46228 4.87239C7.07894 4.74169 7.7153 4.73372 8.33504 4.84894C8.95477 4.96417 9.54574 5.20033 10.0742 5.54395C10.6027 5.88756 11.0583 6.33191 11.415 6.8516C11.7718 7.3713 12.0227 7.95617 12.1534 8.57282C12.2841 9.18948 12.292 9.82584 12.1768 10.4456C12.0616 11.0653 11.8254 11.6563 11.4818 12.1847L8.86581 16.2083C8.41061 16.9088 7.78048 17.4784 7.03771 17.8607C6.29494 18.243 5.46524 18.4249 4.63065 18.3883C3.79607 18.3517 2.98548 18.0979 2.27903 17.652C1.57258 17.2061 0.994731 16.5836 0.602607 15.8459Z" />
</symbol>
<symbol id="wcv-icon-setup-complete" viewBox="0 0 15 11">
<title>setup-compplete</title>
<path d="M14.708 0.292078C14.8012 0.38497 14.8751 0.495321 14.9255 0.616811C14.9759 0.738302 15.0018 0.868544 15.0018 1.00008C15.0018 1.13161 14.9759 1.26186 14.9255 1.38335C14.8751 1.50484 14.8012 1.61519 14.708 1.70808L5.70804 10.7081C5.61515 10.8012 5.5048 10.8751 5.38331 10.9255C5.26182 10.9759 5.13158 11.0019 5.00004 11.0019C4.86851 11.0019 4.73827 10.9759 4.61678 10.9255C4.49528 10.8751 4.38493 10.8012 4.29204 10.7081L0.292042 6.70808C0.104269 6.52031 -0.0012207 6.26563 -0.0012207 6.00008C-0.0012207 5.73453 0.104269 5.47985 0.292042 5.29208C0.479816 5.10431 0.734491 4.99882 1.00004 4.99882C1.26559 4.99882 1.52027 5.10431 1.70804 5.29208L5.00004 8.58608L13.292 0.292078C13.3849 0.198952 13.4953 0.125067 13.6168 0.0746536C13.7383 0.0242407 13.8685 -0.00170898 14 -0.00170898C14.1316 -0.00170898 14.2618 0.0242407 14.3833 0.0746536C14.5048 0.125067 14.6152 0.198952 14.708 0.292078Z" fill="white"/>
</symbol>
<symbol id="wcv-icon-view" viewBox="0 0 16 16">
<title>view</title>
<path d="M16.1368 8.16325C15.5487 6.64208 14.5278 5.32656 13.2002 4.37929C11.8726 3.43203 10.2965 2.89454 8.66678 2.83325C7.03704 2.89454 5.46097 3.43203 4.13338 4.37929C2.80579 5.32656 1.78486 6.64208 1.19678 8.16325C1.15706 8.27311 1.15706 8.3934 1.19678 8.50325C1.78486 10.0244 2.80579 11.3399 4.13338 12.2872C5.46097 13.2345 7.03704 13.772 8.66678 13.8333C10.2965 13.772 11.8726 13.2345 13.2002 12.2872C14.5278 11.3399 15.5487 10.0244 16.1368 8.50325C16.1765 8.3934 16.1765 8.27311 16.1368 8.16325ZM8.66678 12.8333C6.01678 12.8333 3.21678 10.8683 2.20178 8.33325C3.21678 5.79825 6.01678 3.83325 8.66678 3.83325C11.3168 3.83325 14.1168 5.79825 15.1318 8.33325C14.1168 10.8683 11.3168 12.8333 8.66678 12.8333Z" />
<path d="M8.66675 5.33325C8.07341 5.33325 7.49339 5.5092 7.00004 5.83884C6.50669 6.16849 6.12217 6.63702 5.89511 7.1852C5.66805 7.73338 5.60864 8.33658 5.72439 8.91852C5.84015 9.50047 6.12587 10.035 6.54543 10.4546C6.96499 10.8741 7.49954 11.1599 8.08148 11.2756C8.66342 11.3914 9.26662 11.332 9.8148 11.1049C10.363 10.8778 10.8315 10.4933 11.1612 9.99996C11.4908 9.50662 11.6667 8.9266 11.6667 8.33325C11.6667 7.5376 11.3507 6.77454 10.7881 6.21193C10.2255 5.64932 9.4624 5.33325 8.66675 5.33325ZM8.66675 10.3333C8.27119 10.3333 7.88451 10.216 7.55561 9.99619C7.22671 9.77643 6.97037 9.46407 6.81899 9.09862C6.66761 8.73317 6.62801 8.33103 6.70518 7.94307C6.78235 7.55511 6.97283 7.19874 7.25254 6.91904C7.53224 6.63933 7.88861 6.44885 8.27657 6.37168C8.66453 6.29451 9.06666 6.33412 9.43212 6.48549C9.79757 6.63687 10.1099 6.89321 10.3297 7.22211C10.5495 7.55101 10.6667 7.93769 10.6667 8.33325C10.6667 8.86368 10.456 9.37239 10.081 9.74747C9.70589 10.1225 9.19718 10.3333 8.66675 10.3333Z" />
</symbol>
<symbol id="wcv-icon-snapshot-sales" viewBox="0 0 18 18">
<title>snapshot-sales</title>
<path fill-rule="evenodd" clip-rule="evenodd" d="M2 0C0.895432 0 0 0.895447 0 2V16C0 17.1046 0.895432 18 2 18H16C17.1046 18 18 17.1046 18 16V2C18 0.895447 17.1046 0 16 0H2ZM5 10C5 9.44769 4.55228 9 4 9C3.44772 9 3 9.44769 3 10V14C3 14.5523 3.44772 15 4 15C4.55228 15 5 14.5523 5 14V10ZM9 6C9.55228 6 10 6.44769 10 7V14C10 14.5523 9.55228 15 9 15C8.44772 15 8 14.5523 8 14V7C8 6.44769 8.44772 6 9 6ZM15 4C15 3.44769 14.5523 3 14 3C13.4477 3 13 3.44769 13 4V14C13 14.5523 13.4477 15 14 15C14.5523 15 15 14.5523 15 14V4Z" fill="white"/>
</symbol>
<symbol id="wcv-icon-snapshot-commissions" viewBox="0 0 19 23">
<title>snapshot-commissions</title>
<path fill-rule="evenodd" clip-rule="evenodd" d="M0.555542 4.95622C0.555542 2.55499 2.54539 0.608398 4.99999 0.608398H11.6667V4.95622C11.6667 7.35746 13.6565 9.30405 16.1111 9.30405H18.3333V17.9997C18.3333 20.4009 16.3435 22.3475 13.8889 22.3475H4.99999C2.54539 22.3475 0.555542 20.4009 0.555542 17.9997V4.95622ZM4.99999 10.391C4.38634 10.391 3.88888 10.8777 3.88888 11.478C3.88888 12.0783 4.38634 12.5649 4.99999 12.5649H7.22221C7.83586 12.5649 8.33332 12.0783 8.33332 11.478C8.33332 10.8777 7.83586 10.391 7.22221 10.391H4.99999ZM4.99999 14.7388C4.38634 14.7388 3.88888 15.2255 3.88888 15.8258C3.88888 16.4261 4.38634 16.9127 4.99999 16.9127H9.44443C10.0581 16.9127 10.5555 16.4261 10.5555 15.8258C10.5555 15.2255 10.0581 14.7388 9.44443 14.7388H4.99999ZM14.6464 2.99839L14.5009 5.13327C14.4562 5.78944 15.0127 6.33386 15.6835 6.29012L17.8658 6.14779C18.8183 6.08567 19.2526 4.95499 18.5776 4.29465L16.5407 2.3021C15.8657 1.64175 14.7099 2.06659 14.6464 2.99839Z" fill="white"/>
</symbol>
<symbol id="wcv-icon-snapshot-total-orders" viewBox="0 0 18 17">
<title>snapshot-total-orders</title>
<path fill-rule="evenodd" clip-rule="evenodd" d="M14.5847 0.157618L10.9182 0.670018C10.358 0.748301 9.90037 1.00949 9.57358 1.37046L1.01866 9.73941C0.150828 10.5884 0.150792 11.9648 1.01866 12.8138L4.16136 15.8882C5.02922 16.7372 6.43622 16.7371 7.30405 15.8882L15.859 7.51922C16.228 7.19953 16.495 6.75182 16.575 6.20386L17.0988 2.61708C17.3083 1.18243 16.0512 -0.0473961 14.5847 0.157618ZM12.0181 5.12784C12.452 5.5523 13.1555 5.55233 13.5894 5.12784C14.0234 4.70336 14.0233 4.01511 13.5894 3.59065C13.1556 3.1662 12.452 3.16617 12.0181 3.59065C11.5842 4.01514 11.5842 4.70339 12.0181 5.12784Z" fill="white"/>
</symbol>
<symbol id="wcv-icon-column-order" viewBox="0 0 25 24">
<title>column-order</title>
<path d="M17.025 3.5H19.5C19.7652 3.5 20.0196 3.60536 20.2071 3.79289C20.3946 3.98043 20.5 4.23478 20.5 4.5V21C20.5 21.2652 20.3946 21.5196 20.2071 21.7071C20.0196 21.8946 19.7652 22 19.5 22H5.5C5.23478 22 4.98043 21.8946 4.79289 21.7071C4.60536 21.5196 4.5 21.2652 4.5 21V4.5C4.5 4.23478 4.60536 3.98043 4.79289 3.79289C4.98043 3.60536 5.23478 3.5 5.5 3.5H9V5H16V3.5H17.025Z" stroke="#666666" stroke-width="2" stroke-linejoin="round"/>
<path d="M14 9.5L10 13.5005H15.002L11 17.5005M9 2H16V5H9V2Z" stroke="#666666" stroke-width="2" stroke-linecap="round" stroke-linejoin="round"/>
</symbol>
<symbol id="wcv-icon-column-customer" viewBox="0 0 24 24"><g fill="currentColor" fill-rule="evenodd">
<path d="m12.593 23.258l-.011.002l-.071.035l-.02.004l-.014-.004l-.071-.035q-.016-.005-.024.005l-.004.01l-.017.428l.005.02l.01.013l.104.074l.015.004l.012-.004l.104-.074l.012-.016l.004-.017l-.017-.427q-.004-.016-.017-.018m.265-.113l-.013.002l-.185.093l-.01.01l-.003.011l.018.43l.005.012l.008.007l.201.093q.019.005.029-.008l.004-.014l-.034-.614q-.005-.018-.02-.022m-.715.002a.02.02 0 0 0-.027.006l-.006.014l-.034.614q.001.018.017.024l.015-.002l.201-.093l.01-.008l.004-.011l.017-.43l-.003-.012l-.01-.01z"/><path fill="currentColor" d="M16 14a5 5 0 0 1 4.995 4.783L21 19v1a2 2 0 0 1-1.85 1.995L19 22H5a2 2 0 0 1-1.995-1.85L3 20v-1a5 5 0 0 1 4.783-4.995L8 14zm0 2H8a3 3 0 0 0-2.995 2.824L5 19v1h14v-1a3 3 0 0 0-2.824-2.995zM12 2a5 5 0 1 1 0 10a5 5 0 0 1 0-10m0 2a3 3 0 1 0 0 6a3 3 0 0 0 0-6"/></g></symbol>
<symbol id="wcv-icon-column-total" viewBox="0 0 24 24"><g fill="none" stroke="currentColor" stroke-width="1.5"><circle cx="12" cy="12" r="10"/><path stroke-linecap="round" d="M12 6v12m3-8.5C15 8.12 13.657 7 12 7S9 8.12 9 9.5s1.343 2.5 3 2.5s3 1.12 3 2.5s-1.343 2.5-3 2.5s-3-1.12-3-2.5"/></g></symbol>
<symbol id="wcv-icon-column-shipping" viewBox="0 0 24 24"><path fill="currentColor" d="M6 20q-1.25 0-2.125-.875T3 17H1V6q0-.825.588-1.412T3 4h14v4h3l3 4v5h-2q0 1.25-.875 2.125T18 20t-2.125-.875T15 17H9q0 1.25-.875 2.125T6 20m0-2q.425 0 .713-.288T7 17t-.288-.712T6 16t-.712.288T5 17t.288.713T6 18m-3-3h.8q.425-.45.975-.725T6 14t1.225.275T8.2 15H15V6H3zm15 3q.425 0 .713-.288T19 17t-.288-.712T18 16t-.712.288T17 17t.288.713T18 18m-1-5h4.25L19 10h-2zm-8-2.5"/></symbol>
<symbol id="wcv-icon-column-actions" viewBox="0 0 16 16"><path fill="currentColor" d="M14.354 1.647a2.27 2.27 0 0 0-3.207 0l-4.25 4.25a.5.5 0 0 0-.121.195l-1.25 3.75a.5.5 0 0 0 .632.633l3.75-1.25a.5.5 0 0 0 .196-.121l4.25-4.25a2.27 2.27 0 0 0 0-3.207m-2.5.707a1.268 1.268 0 0 1 1.793 1.793L9.48 8.313l-2.69.897l.897-2.69zM8 3q.184 0 .366.013l.883-.883a6 6 0 1 0 4.621 4.621l-.883.884Q13 7.815 13 8a5 5 0 1 1-5-5"/></symbol>
<symbol id="wcv-icon-status" viewBox="0 0 12 12">
	<path fill="currentColor" d="M6 1q.417 0 .816.066l-.936.936a4 4 0 1 0 4.118 4.124l.937-.936Q11 5.585 11 6a5 5 0 1 1-5-5m4.441.562a1.914 1.914 0 0 0-2.707 0L5.15 4.146a.5.5 0 0 0-.12.194l-.984 2.92a.55.55 0 0 0 .696.697l2.92-.982a.5.5 0 0 0 .195-.12l2.584-2.585a1.914 1.914 0 0 0 0-2.707m-2 .707a.914.914 0 0 1 1.293 1.293l-2.502 2.5l-1.949.656l.656-1.948z" />
</symbol>
<symbol id="wcv-icon-order-detail-title" viewBox="0 0 32 32">
<title>order-detail-title</title>
<circle cx="22" cy="24" r="2" />
<path d="M29.777 23.479A8.64 8.64 0 0 0 22 18a8.64 8.64 0 0 0-7.777 5.479L14 24l.223.522A8.64 8.64 0 0 0 22 30a8.64 8.64 0 0 0 7.777-5.478L30 24ZM22 28a4 4 0 1 1 4-4a4.005 4.005 0 0 1-4 4" />
<circle cx="8" cy="8" r="1" />
<circle cx="8" cy="16" r="1" />
<circle cx="8" cy="24" r="1" />
<path d="M5 21h7v-2H5v-6h16v3h2V5a2 2 0 0 0-2-2H5a2 2 0 0 0-2 2v22a2 2 0 0 0 2 2h7v-2H5ZM5 5h16v6H5Z" />
</symbol>
<symbol id="wcv-icon-tracking-detail-title" viewBox="0 0 24 24">
<title>tracking-detail-title</title>
<path d="M18 18.5c.83 0 1.5-.67 1.5-1.5s-.67-1.5-1.5-1.5s-1.5.67-1.5 1.5s.67 1.5 1.5 1.5m1.5-9H17V12h4.46zM6 18.5c.83 0 1.5-.67 1.5-1.5s-.67-1.5-1.5-1.5s-1.5.67-1.5 1.5s.67 1.5 1.5 1.5M20 8l3 4v5h-2c0 1.66-1.34 3-3 3s-3-1.34-3-3H9c0 1.66-1.34 3-3 3s-3-1.34-3-3H1V6c0-1.11.89-2 2-2h14v4zM3 6v9h.76c.55-.61 1.35-1 2.24-1s1.69.39 2.24 1H15V6zm7 1l3.5 3.5L10 14v-2.5H5v-2h5z" />
</symbol>
<symbol id="wcv-icon-note-detail-title" viewBox="0 0 24 24">
<title>note</title>
<path d="M19 3H5c-1.103 0-2 .897-2 2v14c0 1.103.897 2 2 2h8a1 1 0 0 0 .707-.293l7-7a1 1 0 0 0 .196-.293c.014-.03.022-.061.033-.093a1 1 0 0 0 .051-.259c.002-.021.013-.041.013-.062V5c0-1.103-.897-2-2-2M5 5h14v7h-6a1 1 0 0 0-1 1v6H5zm9 12.586V14h3.586z" />
</symbol>
<symbol id="wcv-icon-calendar" viewBox="0 0 24 24">
<title>calendar</title>
<path d="M7 11h2v2H7zm0 4h2v2H7zm4-4h2v2h-2zm0 4h2v2h-2zm4-4h2v2h-2zm0 4h2v2h-2z" />
<path d="M5 22h14c1.103 0 2-.897 2-2V6c0-1.103-.897-2-2-2h-2V2h-2v2H9V2H7v2H5c-1.103 0-2 .897-2 2v14c0 1.103.897 2 2 2M19 8l.001 12H5V8z" />
</symbol>
<symbol id="wcv-icon-export" viewBox="0 0 24 24">
<title>export</title>
<path  d="M8.71 7.71L11 5.41V15a1 1 0 0 0 2 0V5.41l2.29 2.3a1 1 0 0 0 1.42 0a1 1 0 0 0 0-1.42l-4-4a1 1 0 0 0-.33-.21a1 1 0 0 0-.76 0a1 1 0 0 0-.33.21l-4 4a1 1 0 1 0 1.42 1.42M21 14a1 1 0 0 0-1 1v4a1 1 0 0 1-1 1H5a1 1 0 0 1-1-1v-4a1 1 0 0 0-2 0v4a3 3 0 0 0 3 3h14a3 3 0 0 0 3-3v-4a1 1 0 0 0-1-1"/>
</symbol>
<symbol id="wcv-icon-round-update" viewBox="0 0 24 24">
	<path d="M11 8.75v3.68c0 .35.19.68.49.86l3.12 1.85c.36.21.82.09 1.03-.26c.21-.36.1-.82-.26-1.03l-2.87-1.71v-3.4c-.01-.4-.35-.74-.76-.74s-.75.34-.75.75m10 .75V4.21c0-.45-.54-.67-.85-.35l-1.78 1.78a9.01 9.01 0 0 0-7.21-2.6c-4.19.38-7.64 3.75-8.1 7.94a9 9 0 0 0 17.87 2.14c.07-.6-.4-1.12-1-1.12c-.5 0-.92.37-.98.86c-.43 3.49-3.44 6.19-7.05 6.14c-3.71-.05-6.84-3.18-6.9-6.9C4.94 8.2 8.11 5 12 5c1.93 0 3.68.79 4.95 2.05l-2.09 2.09c-.32.32-.1.86.35.86h5.29c.28 0 .5-.22.5-.5" />
</symbol>
<symbol id="wcv-icon-shipping-truck" viewBox="0 0 24 24">
	<g fill="none" stroke="currentColor" stroke-linecap="round" stroke-linejoin="round" stroke-width="1.5" color="currentColor">
		<path d="M19.5 17.5a2.5 2.5 0 1 1-5 0a2.5 2.5 0 0 1 5 0m-10 0a2.5 2.5 0 1 1-5 0a2.5 2.5 0 0 1 5 0" />
		<path d="M14.5 17.5h-5m5.5-2V7c0-1.414 0-2.121-.44-2.56C14.122 4 13.415 4 12 4H5c-1.414 0-2.121 0-2.56.44C2 4.878 2 5.585 2 7v8c0 .935 0 1.402.201 1.75a1.5 1.5 0 0 0 .549.549c.348.201.815.201 1.75.201m11-11h1.801c.83 0 1.245 0 1.589.195c.344.194.557.55.984 1.262l1.699 2.83c.212.354.318.532.373.728c.054.197.054.403.054.816V15c0 .935 0 1.402-.201 1.75a1.5 1.5 0 0 1-.549.549c-.348.201-.815.201-1.75.201" />
		<path d="m9.327 12l1.486-1.174C11.604 10.2 12 9.888 12 9.5M9.327 7l1.486 1.174C11.604 8.8 12 9.112 12 9.5m0 0H5" />
	</g>
</symbol>
<symbol id="wcv-icon-bill" viewBox="0 0 24 24">
<g fill-rule="evenodd">
<path d="m12.594 23.258l-.012.002l-.071.035l-.02.004l-.014-.004l-.071-.036q-.016-.004-.024.006l-.004.01l-.017.428l.005.02l.01.013l.104.074l.015.004l.012-.004l.104-.074l.012-.016l.004-.017l-.017-.427q-.004-.016-.016-.018m.264-.113l-.014.002l-.184.093l-.01.01l-.003.011l.018.43l.005.012l.008.008l.201.092q.019.005.029-.008l.004-.014l-.034-.614q-.005-.019-.02-.022m-.715.002a.02.02 0 0 0-.027.006l-.006.014l-.034.614q.001.018.017.024l.015-.002l.201-.093l.01-.008l.003-.011l.018-.43l-.003-.012l-.01-.01z"/>
<path d="M3 5.5A2.5 2.5 0 0 1 5.5 3H18a3 3 0 0 1 3 3v14a1 1 0 0 1-1.524.852l-2.726-1.678l-2.726 1.678a1 1 0 0 1-1.048 0l-2.726-1.678l-2.726 1.678A1 1 0 0 1 6 20v-6H4a1 1 0 0 1-1-1zm5 12.71l1.726-1.062a1 1 0 0 1 1.048 0l2.726 1.678l2.726-1.678a1 1 0 0 1 1.048 0L19 18.21V6a1 1 0 0 0-1-1H7.95q.05.243.05.5zM5.5 5a.5.5 0 0 0-.5.5V12h1V5.5a.5.5 0 0 0-.5-.5M10 9a1 1 0 0 1 1-1h5a1 1 0 1 1 0 2h-5a1 1 0 0 1-1-1m0 4a1 1 0 0 1 1-1h4a1 1 0 1 1 0 2h-4a1 1 0 0 1-1-1"/>
</g>
</symbol>
<symbol id="wcv-icon-mark-shipped" viewBox="0 0 25 24">
<title>mark-shipped</title>
<path d="M22 18H15V7H20.3C20.75 7 21.1 7.3 21.25 7.7L23 13V17C23 17.55 22.55 18 22 18Z" fill="#D5D4DC"/>
<path d="M15 18H3C2.45 18 2 17.55 2 17V4.5C2 3.95 2.45 3.5 3 3.5H14C14.55 3.5 15 3.95 15 4.5V18Z" fill="#666666"/>
<path d="M19 20.5C20.3807 20.5 21.5 19.3807 21.5 18C21.5 16.6193 20.3807 15.5 19 15.5C17.6193 15.5 16.5 16.6193 16.5 18C16.5 19.3807 17.6193 20.5 19 20.5Z" fill="#37474F"/>
<path d="M7 20.5C8.38071 20.5 9.5 19.3807 9.5 18C9.5 16.6193 8.38071 15.5 7 15.5C5.61929 15.5 4.5 16.6193 4.5 18C4.5 19.3807 5.61929 20.5 7 20.5Z" fill="#37474F"/>
<path d="M19 19C19.5523 19 20 18.5523 20 18C20 17.4477 19.5523 17 19 17C18.4477 17 18 17.4477 18 18C18 18.5523 18.4477 19 19 19Z" fill="#78909C"/>
<path d="M7 19C7.55228 19 8 18.5523 8 18C8 17.4477 7.55228 17 7 17C6.44772 17 6 17.4477 6 18C6 18.5523 6.44772 19 7 19Z" fill="#78909C"/>
<path d="M21 12.5H17.5C17.2 12.5 17 12.3 17 12V8.5C17 8.2 17.2 8 17.5 8H20.15C20.35 8 20.55 8.15 20.6 8.35L21.45 10.95C21.45 11 21.5 11.05 21.5 11.1V12C21.5 12.3 21.3 12.5 21 12.5Z" fill="#37474F"/>
<path d="M12.3315 13.0232C12.4388 13.1305 12.499 13.2761 12.499 13.4278C12.499 13.5796 12.4388 13.7251 12.3315 13.8324C12.2241 13.9397 12.0786 14 11.9268 14C11.7751 14 11.6295 13.9397 11.5222 13.8324L8.5 10.8094L5.47682 13.8315C5.36951 13.9388 5.22397 13.999 5.07221 13.999C4.92045 13.999 4.77491 13.9388 4.6676 13.8315C4.56029 13.7242 4.5 13.5786 4.5 13.4269C4.5 13.2751 4.56029 13.1296 4.6676 13.0223L7.69077 10.0002L4.66855 6.97724C4.56124 6.86994 4.50095 6.7244 4.50095 6.57265C4.50095 6.4209 4.56124 6.27537 4.66855 6.16806C4.77586 6.06076 4.9214 6.00048 5.07316 6.00048C5.22492 6.00048 5.37047 6.06076 5.47778 6.16806L8.5 9.19106L11.5232 6.16759C11.6305 6.06028 11.776 6 11.9278 6C12.0795 6 12.2251 6.06028 12.3324 6.16759C12.4397 6.27489 12.5 6.42043 12.5 6.57218C12.5 6.72393 12.4397 6.86946 12.3324 6.97677L9.30923 10.0002L12.3315 13.0232Z" fill="white"/>
</symbol>
<symbol id="wcv-icon-mark-unshipped" viewBox="0 0 25 24">
<path d="M22 18H15V7H20.3C20.75 7 21.1 7.3 21.25 7.7L23 13V17C23 17.55 22.55 18 22 18Z" fill="#DCF7D9"/>
<path d="M15 18H3C2.45 18 2 17.55 2 17V4.5C2 3.95 2.45 3.5 3 3.5H14C14.55 3.5 15 3.95 15 4.5V18Z" fill="#388E3C"/>
<path d="M19 20.5C20.3807 20.5 21.5 19.3807 21.5 18C21.5 16.6193 20.3807 15.5 19 15.5C17.6193 15.5 16.5 16.6193 16.5 18C16.5 19.3807 17.6193 20.5 19 20.5Z" fill="#37474F"/>
<path d="M7 20.5C8.38071 20.5 9.5 19.3807 9.5 18C9.5 16.6193 8.38071 15.5 7 15.5C5.61929 15.5 4.5 16.6193 4.5 18C4.5 19.3807 5.61929 20.5 7 20.5Z" fill="#37474F"/>
<path d="M19 19C19.5523 19 20 18.5523 20 18C20 17.4477 19.5523 17 19 17C18.4477 17 18 17.4477 18 18C18 18.5523 18.4477 19 19 19Z" fill="#78909C"/>
<path d="M7 19C7.55228 19 8 18.5523 8 18C8 17.4477 7.55228 17 7 17C6.44772 17 6 17.4477 6 18C6 18.5523 6.44772 19 7 19Z" fill="#78909C"/>
<path d="M21 12.5H17.5C17.2 12.5 17 12.3 17 12V8.5C17 8.2 17.2 8 17.5 8H20.15C20.35 8 20.55 8.15 20.6 8.35L21.45 10.95C21.45 11 21.5 11.05 21.5 11.1V12C21.5 12.3 21.3 12.5 21 12.5Z" fill="#37474F"/>
<path d="M11.4 6.89999L7.45 10.85L5.6 8.94999L4.5 10.05L7.45 13L12.5 7.94999L11.4 6.89999Z" fill="#DCEDC8"/>
</symbol>
<symbol id="wcv-icon-thumbnail" viewBox="0 0 24 24"><g fill="none" stroke="currentColor" stroke-width="1.5"><circle cx="16" cy="8" r="2"/><path stroke-linecap="round" d="m2 10.154l.98-.141C9.96 9.01 15.925 15.03 14.858 22"/><path stroke-linecap="round" d="m22 13.385l-.973-.135c-2.844-.394-5.417 1.022-6.742 3.25"/><path stroke-linecap="round" d="M22 12c0 4.714 0 7.071-1.465 8.535C19.072 22 16.714 22 12 22s-7.071 0-8.536-1.465C2 19.072 2 16.714 2 12s0-7.071 1.464-8.536C4.93 2 7.286 2 12 2s7.071 0 8.535 1.464c.974.974 1.3 2.343 1.41 4.536"/></g></symbol>
<symbol id="wcv-icon-details" viewBox="0 0 24 24">
	<g fill="none" stroke="#666666" stroke-linecap="round" stroke-linejoin="round" stroke-width="1.5" color="#666666">
		<path d="m12.88 7.017l4.774 1.271m-5.796 2.525l2.386.636m-2.267 6.517l.954.255c2.7.72 4.05 1.079 5.114.468c1.063-.61 1.425-1.953 2.148-4.637l1.023-3.797c.724-2.685 1.085-4.027.471-5.085s-1.963-1.417-4.664-2.136l-.954-.255c-2.7-.72-4.05-1.079-5.113-.468c-1.064.61-1.426 1.953-2.15 4.637l-1.022 3.797c-.724 2.685-1.086 4.027-.471 5.085c.614 1.057 1.964 1.417 4.664 2.136" />
		<path d="m12 20.946l-.952.26c-2.694.733-4.04 1.1-5.102.477c-1.06-.622-1.422-1.99-2.143-4.728l-1.021-3.872c-.722-2.737-1.083-4.106-.47-5.184C2.842 6.966 4 7 5.5 7" />
	</g>
</symbol>
<symbol id="wcv-icon-edit" viewBox="0 0 24 24">
	<path fill="none" stroke="#666666" stroke-linecap="round" stroke-linejoin="round" stroke-width="1.5" d="M16.946 3.173c.587-.587.88-.88 1.206-1.021c.469-.203 1-.203 1.469 0c.325.14.619.434 1.206 1.021s.88.881 1.021 1.206c.203.469.203 1 0 1.469c-.14.325-.434.619-1.021 1.206l-5.022 5.022c-1.237 1.237-1.855 1.855-2.63 2.222s-1.646.452-3.387.624L9 15l.078-.788c.172-1.741.257-2.612.624-3.387s.985-1.393 2.222-2.63zM6 15H3.75a1.75 1.75 0 1 0 0 3.5h9.5a1.75 1.75 0 1 1 0 3.5H11" color="#666666" />
</symbol>
<symbol id="wcv-icon-duplicate" viewBox="0 0 24 24">
	<path fill="#666666" d="M11 10H9v3H6v2h3v3h2v-3h3v-2h-3z" />
	<path fill="#666666" d="M4 22h12c1.103 0 2-.897 2-2V8c0-1.103-.897-2-2-2H4c-1.103 0-2 .897-2 2v12c0 1.103.897 2 2 2M4 8h12l.002 12H4z" />
	<path fill="#666666" d="M20 2H8v2h12v12h2V4c0-1.103-.897-2-2-2" />
</symbol>
<symbol id="wcv-icon-trash" viewBox="0 0 24 24">
	<path fill="currentColor" d="M7 21q-.825 0-1.412-.587T5 19V6H4V4h5V3h6v1h5v2h-1v13q0 .825-.587 1.413T17 21zM17 6H7v13h10zM9 17h2V8H9zm4 0h2V8h-2zM7 6v13z" />
</symbol>
<symbol id="wcv-icon-import" viewBox="0 0 24 24">
	<path fill="currentColor" d="M21 14a1 1 0 0 0-1 1v4a1 1 0 0 1-1 1H5a1 1 0 0 1-1-1v-4a1 1 0 0 0-2 0v4a3 3 0 0 0 3 3h14a3 3 0 0 0 3-3v-4a1 1 0 0 0-1-1m-9.71 1.71a1 1 0 0 0 .33.21a.94.94 0 0 0 .76 0a1 1 0 0 0 .33-.21l4-4a1 1 0 0 0-1.42-1.42L13 12.59V3a1 1 0 0 0-2 0v9.59l-2.29-2.3a1 1 0 1 0-1.42 1.42Z" />
</symbol>
<symbol id="wcv-icon-search" viewBox="0 0 24 24">
	<path fill="currentColor" d="m19.6 21l-6.3-6.3q-.75.6-1.725.95T9.5 16q-2.725 0-4.612-1.888T3 9.5t1.888-4.612T9.5 3t4.613 1.888T16 9.5q0 1.1-.35 2.075T14.7 13.3l6.3 6.3zM9.5 14q1.875 0 3.188-1.312T14 9.5t-1.312-3.187T9.5 5T6.313 6.313T5 9.5t1.313 3.188T9.5 14" />
</symbol>
<symbol id="wcv-icon-info" viewBox="0 0 24 24">
	<g fill="none">
		<path d="m12.593 23.258l-.011.002l-.071.035l-.02.004l-.014-.004l-.071-.035q-.016-.005-.024.005l-.004.01l-.017.428l.005.02l.01.013l.104.074l.015.004l.012-.004l.104-.074l.012-.016l.004-.017l-.017-.427q-.004-.016-.017-.018m.265-.113l-.013.002l-.185.093l-.01.01l-.003.011l.018.43l.005.012l.008.007l.201.093q.019.005.029-.008l.004-.014l-.034-.614q-.005-.018-.02-.022m-.715.002a.02.02 0 0 0-.027.006l-.006.014l-.034.614q.001.018.017.024l.015-.002l.201-.093l.01-.008l.004-.011l.017-.43l-.003-.012l-.01-.01z" />
		<path fill="currentColor" d="M12 2c5.523 0 10 4.477 10 10s-4.477 10-10 10S2 17.523 2 12S6.477 2 12 2m0 2a8 8 0 1 0 0 16a8 8 0 0 0 0-16m-.01 6c.558 0 1.01.452 1.01 1.01v5.124A1 1 0 0 1 12.5 18h-.49A1.01 1.01 0 0 1 11 16.99V12a1 1 0 1 1 0-2zM12 7a1 1 0 1 1 0 2a1 1 0 0 1 0-2" />
	</g>
</symbol>
<symbol id="wcv-icon-stripe" viewBox="0 0 16 16">
	<path fill="currentColor" d="M2 0a2 2 0 0 0-2 2v12a2 2 0 0 0 2 2h12a2 2 0 0 0 2-2V2a2 2 0 0 0-2-2zm6.226 5.385c-.584 0-.937.164-.937.593c0 .468.607.674 1.36.93c1.228.415 2.844.963 2.851 2.993C11.5 11.868 9.924 13 7.63 13a7.7 7.7 0 0 1-3.009-.626V9.758c.926.506 2.095.88 3.01.88c.617 0 1.058-.165 1.058-.671c0-.518-.658-.755-1.453-1.041C6.026 8.49 4.5 7.94 4.5 6.11C4.5 4.165 5.988 3 8.226 3a7.3 7.3 0 0 1 2.734.505v2.583c-.838-.45-1.896-.703-2.734-.703" />
</symbol>
<symbol id="wcv-icon-bank" viewBox="0 0 256 256">
	<path fill="currentColor" d="M24 104h24v64H32a8 8 0 0 0 0 16h192a8 8 0 0 0 0-16h-16v-64h24a8 8 0 0 0 4.19-14.81l-104-64a8 8 0 0 0-8.38 0l-104 64A8 8 0 0 0 24 104m40 0h32v64H64Zm80 0v64h-32v-64Zm48 64h-32v-64h32ZM128 41.39L203.74 88H52.26ZM248 208a8 8 0 0 1-8 8H16a8 8 0 0 1 0-16h224a8 8 0 0 1 8 8" />
</symbol>
<symbol id="wcv-icon-paypal" viewBox="0 0 24 24">
	<path fill="currentColor" d="M9.93 12.99c.1 0 2.42.1 3.8-.24h.01c1.59-.39 3.8-1.51 4.37-5.17c0 0 1.27-4.58-5.03-4.58H7.67c-.49 0-.91.36-.99.84L4.38 18.4c-.05.3.19.58.49.58H8.3l.84-5.32c.06-.38.39-.67.79-.67" />
	<path fill="currentColor" d="M18.99 8.29c-.81 3.73-3.36 5.7-7.42 5.7H10.1l-1.03 6.52c-.04.26.16.49.42.49h1.9c.34 0 .64-.25.69-.59c.08-.4.52-3.32.61-3.82c.05-.34.35-.59.69-.59h.44c2.82 0 5.03-1.15 5.68-4.46c.26-1.34.12-2.44-.51-3.25" />
</symbol>
<symbol id="wcv-icon-check" viewBox="0 0 16 16">
	<path fill="currentColor" d="M10.97 4.97a.75.75 0 0 1 1.07 1.05l-3.99 4.99a.75.75 0 0 1-1.08.02L4.324 8.384a.75.75 0 1 1 1.06-1.06l2.094 2.093l3.473-4.425z" />
</symbol>
<symbol id="wcv-icon-calendar-line" viewBox="0 0 24 24">
<title>calendar-line</title>
	<g fill="none">
		<path d="m12.593 23.258l-.011.002l-.071.035l-.02.004l-.014-.004l-.071-.035q-.016-.005-.024.005l-.004.01l-.017.428l.005.02l.01.013l.104.074l.015.004l.012-.004l.104-.074l.012-.016l.004-.017l-.017-.427q-.004-.016-.017-.018m.265-.113l-.013.002l-.185.093l-.01.01l-.003.011l.018.43l.005.012l.008.007l.201.093q.019.005.029-.008l.004-.014l-.034-.614q-.005-.018-.02-.022m-.715.002a.02.02 0 0 0-.027.006l-.006.014l-.034.614q.001.018.017.024l.015-.002l.201-.093l.01-.008l.004-.011l.017-.43l-.003-.012l-.01-.01z" />
		<path fill="currentColor" d="M16 3a1 1 0 0 1 .993.883L17 4v1h2a2 2 0 0 1 1.995 1.85L21 7v12a2 2 0 0 1-1.85 1.995L19 21H5a2 2 0 0 1-1.995-1.85L3 19V7a2 2 0 0 1 1.85-1.995L5 5h2V4a1 1 0 0 1 1.993-.117L9 4v1h6V4a1 1 0 0 1 1-1m3 9H5v7h14zm0-5H5v3h14z" />
	</g>
</symbol>
<symbol id="wcv-icon-expand" viewBox="0 0 24 24">
	<path fill="none" stroke="currentColor" stroke-linecap="round" stroke-linejoin="round" stroke-width="2" d="M8 4H4m0 0v4m0-4l5 5m7-5h4m0 0v4m0-4l-5 5M8 20H4m0 0v-4m0 4l5-5m7 5h4m0 0v-4m0 4l-5-5" />
</symbol>
<symbol id="wcv-icon-collapse" viewBox="0 0 24 24">
	<path fill="none" stroke="currentColor" stroke-linecap="round" stroke-linejoin="round" stroke-width="2" d="m20 20l-5-5m0 0v4m0-4h4M4 20l5-5m0 0v4m0-4H5M20 4l-5 5m0 0V5m0 4h4M4 4l5 5m0 0V5m0 4H5" />
</symbol>
<symbol id="wcv-icon-download" viewBox="0 0 24 24">
	<path fill="none" stroke="currentColor" stroke-linecap="round" stroke-linejoin="round" stroke-width="2" d="M12 13V4M7 14H5a1 1 0 0 0-1 1v4a1 1 0 0 0 1 1h14a1 1 0 0 0 1-1v-4a1 1 0 0 0-1-1h-2m-1-5l-4 5l-4-5m9 8h.01" />
</symbol>
<symbol id="wcv-icon-tag-price" viewBox="0 0 24 24">
	<path fill="currentColor" fill-rule="evenodd" d="M11.238 2.799c-.614.081-1.372.255-2.45.504l-1.229.284c-.91.21-1.538.356-2.017.52c-.463.159-.725.315-.922.513c-.198.197-.354.459-.513.922c-.164.479-.31 1.106-.52 2.017l-.284 1.228c-.249 1.079-.423 1.837-.504 2.451c-.08.598-.061 1.003.045 1.371c.105.368.304.721.688 1.186c.395.478.944 1.029 1.727 1.812l1.83 1.83c1.359 1.359 2.326 2.324 3.158 2.958c.814.622 1.41.855 2.015.855s1.201-.233 2.016-.855c.831-.634 1.799-1.6 3.158-2.959c1.36-1.36 2.325-2.327 2.96-3.158c.62-.815.854-1.41.854-2.016c0-.605-.233-1.2-.855-2.015c-.634-.832-1.6-1.8-2.959-3.159l-1.83-1.83c-.782-.782-1.333-1.331-1.81-1.726c-.466-.384-.819-.583-1.187-.688c-.368-.106-.773-.124-1.37-.045m-.196-1.487c.717-.095 1.346-.092 1.98.09c.635.182 1.17.513 1.728.973c.54.446 1.14 1.046 1.891 1.797l1.896 1.896c1.31 1.31 2.348 2.348 3.05 3.27c.724.947 1.163 1.859 1.163 2.924c0 1.066-.439 1.978-1.162 2.925c-.703.922-1.74 1.96-3.051 3.27l-.08.08c-1.31 1.31-2.348 2.348-3.27 3.05c-.947.724-1.86 1.163-2.925 1.163s-1.977-.439-2.925-1.162c-.921-.703-1.959-1.74-3.27-3.051L4.173 16.64c-.75-.75-1.351-1.351-1.797-1.89c-.46-.559-.791-1.094-.973-1.728c-.182-.635-.185-1.264-.09-1.981c.091-.694.283-1.522.521-2.556l.3-1.303c.2-.863.362-1.567.555-2.128c.202-.587.455-1.08.871-1.496s.91-.67 1.496-.87c.561-.194 1.265-.356 2.128-.555l1.303-.3c1.034-.24 1.862-.43 2.556-.522M9.49 7.995a1.25 1.25 0 1 0-1.768 1.768A1.25 1.25 0 0 0 9.49 7.995m-2.829-1.06a2.75 2.75 0 1 1 3.89 3.889a2.75 2.75 0 0 1-3.89-3.89m6.33 5.172a.88.88 0 0 0-.608.277c-.388.388-.286.775-.177.884c.11.109.497.21.884-.177c.784-.784 2.138-1.044 3.005-.177c.673.673.668 1.639.265 2.404a.75.75 0 0 1-1.04 1.045a2.2 2.2 0 0 1-1.472.232a.75.75 0 1 1 .302-1.47c.177.037.463-.02.708-.266c.387-.388.286-.775.177-.884c-.11-.109-.497-.21-.884.177c-.784.784-2.138 1.044-3.005.177c-.673-.673-.668-1.639-.265-2.404a.75.75 0 0 1 1.04-1.045c.34-.181.713-.277 1.085-.273a.75.75 0 0 1-.014 1.5" clip-rule="evenodd" />
</symbol>
<symbol id="wcv-icon-create" viewBox="0 0 24 24">
	<path fill="currentColor" d="M21 14v5a2 2 0 0 1-2 2H5a2 2 0 0 1-2-2V5a2 2 0 0 1 2-2h5v2H5v14h14v-5z" />
	<path fill="currentColor" d="M21 7h-4V3h-2v4h-4v2h4v4h2V9h4z" />
</symbol>
<symbol id="wcv-icon-inventory" viewBox="0 0 24 24">
	<path fill="currentColor" d="m15.5 19.925l-4.25-4.25l1.4-1.4l2.85 2.85l5.65-5.65l1.4 1.4zM21 10h-2V5h-2v3H7V5H5v14h6v2H5q-.825 0-1.412-.587T3 19V5q0-.825.588-1.412T5 3h4.175q.275-.875 1.075-1.437T12 1q1 0 1.788.563T14.85 3H19q.825 0 1.413.588T21 5zm-9-5q.425 0 .713-.288T13 4t-.288-.712T12 3t-.712.288T11 4t.288.713T12 5" />
</symbol>
<symbol id="wcv-icon-shipping" viewBox="0 0 24 24">
	<path fill="currentColor" d="M6 20q-1.25 0-2.125-.875T3 17H1V6q0-.825.588-1.412T3 4h14v4h3l3 4v5h-2q0 1.25-.875 2.125T18 20t-2.125-.875T15 17H9q0 1.25-.875 2.125T6 20m0-2q.425 0 .713-.288T7 17t-.288-.712T6 16t-.712.288T5 17t.288.713T6 18m-3-3h.8q.425-.45.975-.725T6 14t1.225.275T8.2 15H15V6H3zm15 3q.425 0 .713-.288T19 17t-.288-.712T18 16t-.712.288T17 17t.288.713T18 18m-1-5h4.25L19 10h-2zm-8-2.5" />
</symbol>
<symbol id="wcv-icon-arrow-down" viewBox="0 0 24 24">
	<path fill="currentColor" d="M11.18 15.83L6.543 9.203C5.892 8.275 6.556 7 7.689 7h8.622c1.133 0 1.797 1.275 1.147 2.203l-4.639 6.627a1 1 0 0 1-1.638 0" />
</symbol>
<symbol id="wcv-icon-arrow-up" viewBox="0 0 24 24">
	<path fill="currentColor" d="m12.192 9.23l3.714 4.458A.8.8 0 0 1 15.292 15H8.708a.8.8 0 0 1-.615-1.312l3.715-4.458a.25.25 0 0 1 .384 0" />
</symbol>
<symbol id="wcv-icon-arrow-right" viewBox="0 0 24 24">
	<path fill="currentColor" d="m14.77 11.808l-4.458-3.715A.8.8 0 0 0 9 8.708v6.584a.8.8 0 0 0 1.312.614l4.458-3.714a.25.25 0 0 0 0-.384" />
</symbol>
<symbol id="wcv-arrow-right-outline" viewBox="0 0 24 24">
<title>arrow-right-outline</title>
<path fill="currentColor" fill-rule="evenodd" d="M13.47 5.47a.75.75 0 0 1 1.06 0l6 6a.75.75 0 0 1 0 1.06l-6 6a.75.75 0 1 1-1.06-1.06l4.72-4.72H4a.75.75 0 0 1 0-1.5h14.19l-4.72-4.72a.75.75 0 0 1 0-1.06" clip-rule="evenodd"/>
</symbol>
<symbol id="wcv-icon-caret-down" viewBox="0 0 1024 1024">
	<path fill="currentColor" d="M104.704 338.752a64 64 0 0 1 90.496 0l316.8 316.8l316.8-316.8a64 64 0 0 1 90.496 90.496L557.248 791.296a64 64 0 0 1-90.496 0L104.704 429.248a64 64 0 0 1 0-90.496" />
</symbol>
<symbol id="wcv-icon-caret-up" viewBox="0 0 1024 1024">
	<path fill="currentColor" d="M104.704 685.248a64 64 0 0 0 90.496 0l316.8-316.8l316.8 316.8a64 64 0 0 0 90.496-90.496L557.248 232.704a64 64 0 0 0-90.496 0L104.704 594.752a64 64 0 0 0 0 90.496" />
</symbol>
<symbol id="wcv-icon-replace-image" viewBox="0 0 24 24"><g fill="none" stroke="currentColor" stroke-linecap="round" stroke-linejoin="round" stroke-width="2"><path d="M15 8h.01M3 6a3 3 0 0 1 3-3h12a3 3 0 0 1 3 3v12a3 3 0 0 1-3 3H6a3 3 0 0 1-3-3z"/><path d="m3 16l5-5c.928-.893 2.072-.893 3 0l5 5"/><path d="m14 14l1-1c.928-.893 2.072-.893 3 0l3 3"/></g></symbol>
<symbol id="wcv-icon-photo" viewBox="0 0 24 24"><g fill="none" stroke="currentColor" stroke-linecap="round" stroke-linejoin="round" stroke-width="2"><path d="M15 8h.01M3 6a3 3 0 0 1 3-3h12a3 3 0 0 1 3 3v12a3 3 0 0 1-3 3H6a3 3 0 0 1-3-3z"/><path d="m3 16l5-5c.928-.893 2.072-.893 3 0l5 5"/><path d="m14 14l1-1c.928-.893 2.072-.893 3 0l3 3"/></g></symbol>
<symbol id="wcv-icon-national" viewBox="0 0 24 24"><g fill="none"><path d="m12.593 23.258l-.011.002l-.071.035l-.02.004l-.014-.004l-.071-.035q-.016-.005-.024.005l-.004.01l-.017.428l.005.02l.01.013l.104.074l.015.004l.012-.004l.104-.074l.012-.016l.004-.017l-.017-.427q-.004-.016-.017-.018m.265-.113l-.013.002l-.185.093l-.01.01l-.003.011l.018.43l.005.012l.008.007l.201.093q.019.005.029-.008l.004-.014l-.034-.614q-.005-.018-.02-.022m-.715.002a.02.02 0 0 0-.027.006l-.006.014l-.034.614q.001.018.017.024l.015-.002l.201-.093l.01-.008l.004-.011l.017-.43l-.003-.012l-.01-.01z"/><path fill="currentColor" d="M21 7a1 1 0 0 1 .117 1.993L21 9v10a1 1 0 0 1 .117 1.993L21 21H3a1 1 0 0 1-.117-1.993L3 19V9a1 1 0 0 1-.117-1.993L3 7zm-2 2H5v10h2v-7a1 1 0 1 1 2 0v7h2v-7a1 1 0 1 1 2 0v7h2v-7a1 1 0 1 1 2 0v7h2zm-1-5a1 1 0 1 1 0 2H6a1 1 0 0 1 0-2z"/></g></symbol>
<symbol id="wcv-icon-international" viewBox="0 0 24 24"><path fill="none" stroke="currentColor" stroke-linecap="round" stroke-width="2" d="M4.37 7.657c2.063.528 2.396 2.806 3.202 3.87c1.07 1.413 2.075 1.228 3.192 2.644c1.805 2.289 1.312 5.705 1.312 6.705M20 15h-1a4 4 0 0 0-4 4v1M8.587 3.992c0 .822.112 1.886 1.515 2.58c1.402.693 2.918.351 2.918 2.334c0 .276 0 2.008 1.972 2.008c2.026.031 2.026-1.678 2.026-2.008c0-.65.527-.9 1.177-.9H20M21 12a9 9 0 1 1-18 0a9 9 0 0 1 18 0Z"/></symbol>
</defs>
</svg>